<svg width="181" height="72" viewBox="0 0 181 72" fill="none" xmlns="http://www.w3.org/2000/svg">
<path d="M47.499 70.083C47.8945 70.083 48.1289 69.8438 48.1289 69.4287V67.124H50.6143C50.9463 67.124 51.166 66.9287 51.166 66.6113C51.166 66.2939 50.9463 66.0986 50.6143 66.0986H48.1289V64.0186H50.8682C51.21 64.0186 51.4443 63.8135 51.4443 63.4863C51.4443 63.1592 51.2148 62.9541 50.8682 62.9541H47.499C47.1084 62.9541 46.8691 63.1982 46.8691 63.6084V69.4287C46.8691 69.8438 47.1084 70.083 47.499 70.083ZM54.7812 70.1025C56.2998 70.1025 57.2861 69.0918 57.2861 67.4121C57.2861 65.7373 56.29 64.7168 54.7812 64.7168C53.2725 64.7168 52.2764 65.7422 52.2764 67.4121C52.2764 69.0918 53.2627 70.1025 54.7812 70.1025ZM54.7812 69.1406C54.0098 69.1406 53.5117 68.5156 53.5117 67.4121C53.5117 66.3135 54.0146 65.6836 54.7812 65.6836C55.5527 65.6836 56.0508 66.3135 56.0508 67.4121C56.0508 68.5156 55.5527 69.1406 54.7812 69.1406ZM60.8574 70.1025C62.376 70.1025 63.3623 69.0918 63.3623 67.4121C63.3623 65.7373 62.3662 64.7168 60.8574 64.7168C59.3486 64.7168 58.3525 65.7422 58.3525 67.4121C58.3525 69.0918 59.3389 70.1025 60.8574 70.1025ZM60.8574 69.1406C60.0859 69.1406 59.5879 68.5156 59.5879 67.4121C59.5879 66.3135 60.0908 65.6836 60.8574 65.6836C61.6289 65.6836 62.127 66.3135 62.127 67.4121C62.127 68.5156 61.6289 69.1406 60.8574 69.1406ZM66.5771 70.083C67.3779 70.083 67.9346 69.6777 68.1836 69.082H68.208V69.4873C68.208 69.8828 68.4717 70.0977 68.8232 70.0977C69.1748 70.0977 69.4238 69.8779 69.4238 69.4873V63.4961C69.4238 63.0859 69.1699 62.8564 68.8135 62.8564C68.457 62.8564 68.208 63.0859 68.208 63.4961V65.6934H68.1787C67.9053 65.1221 67.3193 64.7363 66.5771 64.7363C65.2734 64.7363 64.4287 65.7715 64.4287 67.4072C64.4287 69.0527 65.2734 70.083 66.5771 70.083ZM66.9434 69.0869C66.1572 69.0869 65.6738 68.4424 65.6738 67.4121C65.6738 66.3867 66.1621 65.7373 66.9434 65.7373C67.71 65.7373 68.2129 66.3965 68.2129 67.4121C68.2129 68.4375 67.71 69.0869 66.9434 69.0869ZM74.3936 70.0977C74.7549 70.0977 74.999 69.873 74.999 69.4629V65.7617H75.6338C75.9023 65.7617 76.0977 65.5957 76.0977 65.2979C76.0977 65.0146 75.9023 64.8389 75.6338 64.8389H74.9795V64.4336C74.9795 63.999 75.1602 63.8037 75.6045 63.7939C75.7119 63.7891 75.7949 63.7793 75.873 63.7598C76.0537 63.7061 76.1416 63.5938 76.1416 63.4082C76.1416 63.1055 75.8535 62.9004 75.209 62.9004C74.2764 62.9053 73.7832 63.3691 73.7832 64.3799V64.8389H73.4609C73.1875 64.8389 72.9922 65.0146 72.9922 65.2979C72.9922 65.5957 73.1875 65.7617 73.4609 65.7617H73.7832V69.4629C73.7832 69.873 74.0273 70.0977 74.3936 70.0977ZM79.4199 70.1025C80.9385 70.1025 81.9248 69.0918 81.9248 67.4121C81.9248 65.7373 80.9287 64.7168 79.4199 64.7168C77.9111 64.7168 76.915 65.7422 76.915 67.4121C76.915 69.0918 77.9014 70.1025 79.4199 70.1025ZM79.4199 69.1406C78.6484 69.1406 78.1504 68.5156 78.1504 67.4121C78.1504 66.3135 78.6533 65.6836 79.4199 65.6836C80.1914 65.6836 80.6895 66.3135 80.6895 67.4121C80.6895 68.5156 80.1914 69.1406 79.4199 69.1406ZM83.8115 70.0977C84.1777 70.0977 84.4219 69.8584 84.4219 69.458V66.9678C84.4219 66.3379 84.6855 65.9033 85.3789 65.8984C85.6182 65.8936 85.7988 65.8398 85.916 65.7373C86.0381 65.6396 86.0967 65.498 86.0967 65.3076C86.0967 65.1074 86.0381 64.9609 85.9258 64.8682C85.833 64.7852 85.6865 64.7363 85.4961 64.7363C84.9785 64.7363 84.5293 65.127 84.3877 65.7324H84.3633V65.3369C84.3633 64.9561 84.124 64.7217 83.7871 64.7217C83.4404 64.7217 83.2061 64.9561 83.2061 65.3369V69.458C83.2061 69.8584 83.4453 70.0977 83.8115 70.0977ZM90.3975 70H93.8301C94.1768 70 94.4062 69.7949 94.4062 69.4678C94.4062 69.1406 94.1768 68.9355 93.8301 68.9355H91.0273V66.9238H93.6836C94.0107 66.9238 94.2256 66.7285 94.2256 66.4209C94.2256 66.1133 94.0059 65.9229 93.6836 65.9229H91.0273V64.0186H93.8301C94.1768 64.0186 94.4062 63.8135 94.4062 63.4863C94.4062 63.1592 94.1768 62.9541 93.8301 62.9541H90.3975C90.0068 62.9541 89.7676 63.1982 89.7676 63.6084V69.3457C89.7676 69.7559 90.0068 70 90.3975 70ZM97.8701 70.0977C98.2998 70.0977 98.5586 69.9023 98.71 69.4775L100.165 65.6006C100.204 65.498 100.229 65.3809 100.229 65.2686C100.229 64.9561 99.9795 64.7217 99.6377 64.7217C99.3545 64.7217 99.1592 64.873 99.0664 65.1953L97.8848 68.8721H97.8604L96.6787 65.2051C96.5859 64.8779 96.3906 64.7217 96.1025 64.7217C95.751 64.7217 95.4922 64.9414 95.4922 65.2734C95.4922 65.3906 95.5215 65.5127 95.5605 65.6201L97.0156 69.4775C97.1768 69.917 97.4209 70.0977 97.8701 70.0977ZM103.57 70.1025C104.557 70.1025 105.328 69.7168 105.67 69.0576C105.724 68.9502 105.753 68.8428 105.753 68.75C105.753 68.457 105.538 68.2812 105.265 68.2812C105.094 68.2812 104.981 68.335 104.854 68.4766C104.464 68.9746 104.107 69.165 103.561 69.165C102.77 69.165 102.267 68.6084 102.267 67.7441V67.7051H105.318C105.68 67.7051 105.885 67.4902 105.885 67.1289C105.885 65.7227 104.918 64.7168 103.502 64.7168C102.008 64.7168 101.056 65.7812 101.056 67.4316C101.056 69.1113 101.988 70.1025 103.57 70.1025ZM102.276 66.9043C102.325 66.1621 102.823 65.6592 103.507 65.6592C104.19 65.6592 104.669 66.1523 104.693 66.9043H102.276ZM107.776 70.0977C108.143 70.0977 108.387 69.8584 108.387 69.458V66.9678C108.387 66.3379 108.65 65.9033 109.344 65.8984C109.583 65.8936 109.764 65.8398 109.881 65.7373C110.003 65.6396 110.062 65.498 110.062 65.3076C110.062 65.1074 110.003 64.9609 109.891 64.8682C109.798 64.7852 109.651 64.7363 109.461 64.7363C108.943 64.7363 108.494 65.127 108.353 65.7324H108.328V65.3369C108.328 64.9561 108.089 64.7217 107.752 64.7217C107.405 64.7217 107.171 64.9561 107.171 65.3369V69.458C107.171 69.8584 107.41 70.0977 107.776 70.0977ZM111.851 71.9238C112.886 71.9238 113.423 71.4746 113.892 70.1855L115.596 65.625C115.64 65.5078 115.664 65.3711 115.664 65.2734C115.664 64.9512 115.42 64.7217 115.073 64.7217C114.766 64.7217 114.59 64.8633 114.487 65.1953L113.252 68.9648H113.232L111.997 65.2002C111.895 64.8584 111.724 64.7217 111.416 64.7217C111.06 64.7217 110.791 64.9561 110.791 65.2881C110.791 65.3857 110.815 65.5127 110.859 65.6348L112.554 70.0928L112.466 70.3467C112.285 70.8008 112.002 70.9424 111.729 70.9424C111.616 70.9424 111.567 70.9375 111.465 70.9375C111.182 70.9375 111.006 71.0986 111.006 71.3477C111.006 71.7188 111.304 71.9238 111.851 71.9238ZM118.977 70.1025C120.495 70.1025 121.481 69.0918 121.481 67.4121C121.481 65.7373 120.485 64.7168 118.977 64.7168C117.468 64.7168 116.472 65.7422 116.472 67.4121C116.472 69.0918 117.458 70.1025 118.977 70.1025ZM118.977 69.1406C118.205 69.1406 117.707 68.5156 117.707 67.4121C117.707 66.3135 118.21 65.6836 118.977 65.6836C119.748 65.6836 120.246 66.3135 120.246 67.4121C120.246 68.5156 119.748 69.1406 118.977 69.1406ZM123.368 70.0977C123.725 70.0977 123.979 69.8682 123.979 69.458V67.002C123.979 66.2598 124.423 65.7568 125.121 65.7568C125.814 65.7568 126.156 66.167 126.156 66.8994V69.458C126.156 69.8682 126.41 70.0977 126.767 70.0977C127.123 70.0977 127.372 69.8682 127.372 69.458V66.6553C127.372 65.459 126.723 64.7266 125.58 64.7266C124.784 64.7266 124.247 65.083 123.969 65.6982H123.944V65.3369C123.944 64.9609 123.7 64.7217 123.344 64.7217C122.982 64.7217 122.763 64.9609 122.763 65.3369V69.458C122.763 69.8682 123.012 70.0977 123.368 70.0977ZM131.148 70.1025C132.135 70.1025 132.906 69.7168 133.248 69.0576C133.302 68.9502 133.331 68.8428 133.331 68.75C133.331 68.457 133.116 68.2812 132.843 68.2812C132.672 68.2812 132.56 68.335 132.433 68.4766C132.042 68.9746 131.686 69.165 131.139 69.165C130.348 69.165 129.845 68.6084 129.845 67.7441V67.7051H132.896C133.258 67.7051 133.463 67.4902 133.463 67.1289C133.463 65.7227 132.496 64.7168 131.08 64.7168C129.586 64.7168 128.634 65.7812 128.634 67.4316C128.634 69.1113 129.566 70.1025 131.148 70.1025ZM129.854 66.9043C129.903 66.1621 130.401 65.6592 131.085 65.6592C131.769 65.6592 132.247 66.1523 132.271 66.9043H129.854Z" fill="#FA4A0C"/>
<path d="M21.6335 2.76965C21.9056 3.07868 22.1194 3.3877 22.2749 3.69673C22.5081 3.85124 22.7219 4.08301 22.9163 4.39204C23.0329 4.85558 23.2079 5.24186 23.4411 5.55089C23.6744 5.82129 23.8882 6.14963 24.0825 6.53591C24.1214 6.80631 24.1408 7.11533 24.1408 7.46299C24.1797 7.77202 24.238 8.08104 24.3158 8.39007C24.3547 8.50595 24.3741 8.64115 24.3741 8.79567C24.413 8.91155 24.413 9.02744 24.3741 9.14332C24.413 9.33646 24.4324 9.60686 24.4324 9.95451C24.4713 10.2635 24.4518 10.5146 24.3741 10.7078C24.5296 11.1327 24.5879 11.5576 24.549 11.9825C24.5101 12.4074 24.4713 12.8323 24.4324 13.2572C24.3935 13.5276 24.3547 13.798 24.3158 14.0684C24.2769 14.3002 24.238 14.5513 24.1992 14.8217C24.1603 14.9376 24.1214 15.0728 24.0825 15.2273C24.0437 15.3818 24.0242 15.517 24.0242 15.6329C23.9853 15.826 23.9853 16.0192 24.0242 16.2123C24.102 16.4054 24.102 16.5986 24.0242 16.7917C24.0631 17.7188 24.1408 18.4141 24.2575 18.8777C24.413 19.3412 24.4713 19.8434 24.4324 20.3842C24.3158 21.0022 24.1797 21.6203 24.0242 22.2383C23.8687 22.8177 23.6355 23.3199 23.3245 23.7448C23.0135 23.8993 22.7025 24.0538 22.3915 24.2084C22.0805 24.3629 21.8084 24.556 21.5752 24.7878C21.2253 24.8264 20.8365 24.923 20.4089 25.0775C20.0202 25.232 19.6314 25.29 19.2427 25.2513C19.0872 25.2127 18.8928 25.2127 18.6596 25.2513C18.4263 25.29 18.2514 25.2706 18.1348 25.1934C17.7849 24.923 17.4739 24.8264 17.2018 24.9037C16.9297 24.9809 16.7159 24.923 16.5604 24.7298C16.1716 24.7298 15.744 24.7105 15.2775 24.6719C14.8499 24.6333 14.364 24.5946 13.8198 24.556C13.3921 24.7105 12.9451 24.7685 12.4786 24.7298C12.051 24.6526 11.6817 24.5367 11.3707 24.3822C11.1374 24.3822 10.8848 24.3629 10.6126 24.3242C10.3405 24.247 10.0878 24.189 9.8546 24.1504C9.73797 24.2277 9.56304 24.2856 9.32979 24.3242C9.13542 24.3629 8.99936 24.3629 8.92162 24.3242C8.68837 24.5174 8.45513 24.7492 8.22188 25.0196C7.98864 25.2513 7.83314 25.5604 7.75539 25.9466C7.83314 26.4102 7.89145 26.8737 7.93033 27.3373C7.9692 27.7622 7.98864 28.2064 7.98864 28.6699C7.98864 28.979 8.06639 29.2687 8.22188 29.5391C8.41625 29.8095 8.53288 30.1378 8.57175 30.5241C8.61062 30.8331 8.63006 31.1035 8.63006 31.3353C8.66893 31.5284 8.74668 31.7409 8.86331 31.9727C8.78556 32.0885 8.76612 32.243 8.80499 32.4362C8.88274 32.5907 8.88274 32.7066 8.80499 32.7838C8.96049 33.0542 9.03824 33.3826 9.03824 33.7689C9.07711 34.1165 9.21317 34.4255 9.44642 34.6959C9.44642 35.1209 9.48529 35.4878 9.56304 35.7969C9.67966 36.0673 9.81572 36.3377 9.97122 36.608C10.0878 36.8012 10.2433 36.9364 10.4377 37.0136C10.671 37.0523 10.8653 37.1295 11.0208 37.2454C11.2929 37.9021 11.7789 38.3656 12.4786 38.636C12.8673 38.9451 13.12 39.1768 13.2366 39.3313C13.431 39.3313 13.5865 39.3507 13.7031 39.3893C13.8198 39.4279 13.9558 39.4665 14.1113 39.5052C14.2279 39.5052 14.3446 39.5438 14.4612 39.6211C14.5778 39.6983 14.6944 39.7369 14.811 39.7369C14.8888 39.6983 15.0054 39.679 15.1609 39.679C15.3164 39.6404 15.4719 39.6017 15.6274 39.5631C16.0161 39.4086 16.366 39.2541 16.677 39.0996C16.8714 39.0223 17.0269 38.9257 17.1435 38.8099C17.299 38.6553 17.4351 38.5395 17.5517 38.4622C17.8238 38.3077 17.9987 38.1918 18.0765 38.1146C18.1931 37.9987 18.3097 37.9407 18.4263 37.9407C18.9317 36.975 19.3982 36.2024 19.8258 35.623C20.2534 35.005 20.681 34.3869 21.1087 33.7689C21.303 33.4985 21.4002 33.286 21.4002 33.1315C21.4002 32.977 21.4585 32.8611 21.5752 32.7838C21.5363 32.4748 21.5946 32.243 21.7501 32.0885C21.9056 31.8954 21.9639 31.6829 21.925 31.4512C22.0416 31.1808 22.1971 30.9876 22.3915 30.8717C22.5859 30.7172 22.7414 30.5434 22.858 30.3503C23.2079 30.0412 23.4411 29.8674 23.5577 29.8288C23.6744 29.7902 23.791 29.6936 23.9076 29.5391C24.3352 29.3846 24.8017 29.3073 25.3071 29.3073C25.8513 29.2687 26.3372 29.3652 26.7649 29.597C26.9592 29.7902 27.0953 30.0026 27.173 30.2344C27.2508 30.4661 27.4257 30.6207 27.6978 30.6979C27.7367 30.8911 27.8145 31.0263 27.9311 31.1035C28.0866 31.1808 28.2226 31.258 28.3393 31.3353C28.3781 31.6829 28.4559 32.0306 28.5725 32.3783C28.728 32.7259 28.8057 33.0929 28.8057 33.4792C28.8057 34.3676 28.6697 35.0822 28.3976 35.623C28.1254 36.1252 27.8145 36.608 27.4646 37.0716C27.3091 37.342 27.0953 37.4965 26.8232 37.5351C26.5899 37.5738 26.4344 37.709 26.3567 37.9407C25.9679 37.9407 25.6375 37.9407 25.3654 37.9407C25.1321 37.9407 24.86 37.9987 24.549 38.1146C24.3547 38.4236 24.1408 38.694 23.9076 38.9257C23.7132 39.1575 23.5383 39.4279 23.3828 39.7369C23.0718 40.0073 22.858 40.2391 22.7414 40.4323C22.6248 40.6254 22.4693 40.8185 22.2749 41.0117C21.8473 41.5138 21.5557 41.9581 21.4002 42.3444C21.2447 42.692 21.0115 42.9817 20.7005 43.2135C20.5061 43.368 20.3117 43.5032 20.1174 43.6191C19.923 43.6963 19.7869 43.8702 19.7092 44.1406C19.2038 44.2178 18.7373 44.353 18.3097 44.5462C17.921 44.7007 17.5128 44.8359 17.0852 44.9518C16.9686 45.029 16.8325 45.1256 16.677 45.2415C16.5604 45.3187 16.4632 45.4153 16.3855 45.5312C16.1911 45.6857 15.9578 45.8595 15.6857 46.0527C15.608 46.0913 15.5108 46.1492 15.3942 46.2265C15.3164 46.3038 15.2387 46.381 15.1609 46.4583C14.9277 46.4583 14.7139 46.4969 14.5195 46.5742C14.364 46.69 14.2085 46.7673 14.053 46.8059C13.5865 46.7673 13.295 46.7094 13.1783 46.6321C13.0617 46.5935 12.9451 46.5548 12.8285 46.5162C12.673 46.5162 12.4592 46.5162 12.187 46.5162C11.9149 46.5162 11.7206 46.439 11.6039 46.2844C11.0208 45.9754 10.5155 45.6857 10.0878 45.4153C9.66023 45.1449 9.27148 44.7972 8.92162 44.3723C8.72725 44.3723 8.57175 44.2951 8.45513 44.1406C8.37738 43.9861 8.28019 43.8315 8.16357 43.677C7.85258 43.5225 7.58046 43.368 7.34721 43.2135C7.15284 43.059 7.09453 42.8851 7.17228 42.692C6.78354 42.383 6.51142 42.074 6.35592 41.7649C6.2393 41.4173 6.14212 41.0503 6.06437 40.664C5.559 40.355 5.28688 40.1039 5.24801 39.9108C5.20914 39.679 5.15082 39.4665 5.07308 39.2734C4.99533 38.8099 4.85927 38.327 4.6649 37.8248C4.5094 37.284 4.37334 36.7432 4.25672 36.2024C4.10122 35.8162 4.00404 35.4492 3.96516 35.1015C3.92629 34.7153 3.90685 34.3483 3.90685 34.0006C3.86798 33.6916 3.79023 33.4405 3.67361 33.2474C3.55698 33.0156 3.4598 32.8032 3.38205 32.61C3.22655 32.1851 3.10993 31.8181 3.03218 31.5091C2.99331 31.2001 2.89612 30.949 2.74063 30.7559C2.70175 30.5241 2.64344 30.3696 2.56569 30.2923C2.52682 30.1764 2.54626 30.0412 2.624 29.8867C2.46851 28.6892 2.2547 27.6077 1.98258 26.6419C1.74934 25.6762 1.55497 24.6333 1.39947 23.5131C1.39947 23.0495 1.41891 22.7405 1.45778 22.586C1.49665 22.3928 1.53553 22.2383 1.5744 22.1224C1.65215 21.9679 1.67159 21.7748 1.63271 21.543C1.63271 21.3112 1.67159 21.0795 1.74934 20.8477C1.67159 20.6546 1.63271 20.4421 1.63271 20.2103C1.63271 19.9786 1.59384 19.7661 1.51609 19.573C1.47722 19.4184 1.41891 19.2833 1.34116 19.1674C1.26341 19.0515 1.2051 18.9163 1.16622 18.7618C1.0496 18.3369 0.971854 18.0858 0.93298 18.0085C0.93298 17.8926 0.971854 17.8154 1.0496 17.7767C0.855231 17.6222 0.758046 17.4677 0.758046 17.3132C0.758046 17.1587 0.738609 16.9849 0.699735 16.7917C0.544238 16.56 0.485927 16.4248 0.524801 16.3861C0.563675 16.3089 0.563675 16.2316 0.524801 16.1544C0.447053 15.7681 0.447053 15.459 0.524801 15.2273C0.641423 14.9569 0.719172 14.7251 0.758046 14.532L0.699735 13.8367C0.699735 13.2186 0.777483 12.7744 0.93298 12.504C1.08848 12.2336 1.12735 11.9439 1.0496 11.6348C1.28285 11.094 1.49665 10.6112 1.69103 10.1863C1.8854 9.72274 2.15752 9.33646 2.50738 9.02744C2.66288 8.75704 2.7795 8.48664 2.85725 8.21624C2.97387 7.94584 3.18768 7.73339 3.49867 7.57887C3.57642 7.3471 3.67361 7.17328 3.79023 7.05739C3.94573 6.94151 4.04291 6.76768 4.08179 6.53591C4.47053 6.22688 4.74265 6.01443 4.89814 5.89854C5.05364 5.74403 5.20914 5.5702 5.36463 5.37706C5.7145 5.02941 5.88943 4.85558 5.88943 4.85558C6.0838 4.58518 6.20043 4.44998 6.2393 4.44998C6.27817 4.44998 6.31705 4.43067 6.35592 4.39204C6.58917 4.12164 6.72523 3.94781 6.7641 3.87056C6.84185 3.7933 6.9196 3.73536 6.99735 3.69673C7.42496 3.42633 7.77483 3.23319 8.04695 3.1173C8.35794 3.00142 8.63006 2.84691 8.86331 2.65376C9.1743 2.61514 9.36867 2.51857 9.44642 2.36405C10.1462 2.13228 10.7487 1.93914 11.2541 1.78463C11.7594 1.59149 12.4203 1.45629 13.2366 1.37903C13.7031 1.22452 13.9947 1.14726 14.1113 1.14726C14.2668 1.14726 14.3834 1.18589 14.4612 1.26315C14.8499 1.18589 15.1998 1.22452 15.5108 1.37903C15.744 1.45629 15.9773 1.49492 16.2105 1.49492C16.4438 1.49492 16.677 1.49492 16.9103 1.49492C17.2212 1.49492 17.5128 1.53354 17.7849 1.6108C18.0959 1.64943 18.3875 1.70737 18.6596 1.78463C18.9317 1.86188 19.1844 1.95846 19.4176 2.07434C19.6509 2.1516 19.8841 2.24817 20.1174 2.36405C20.3506 2.47994 20.5839 2.57651 20.8171 2.65376C21.0504 2.73102 21.3225 2.76965 21.6335 2.76965ZM18.8345 9.20126C18.7179 8.96949 18.6402 8.73772 18.6013 8.50595C18.6013 8.23555 18.5624 7.98447 18.4847 7.7527C18.4069 7.55956 18.2708 7.38573 18.0765 7.23122C17.921 7.03808 17.8627 6.82562 17.9015 6.59385C17.5517 6.20757 17.1629 5.8406 16.7353 5.49295C16.3077 5.14529 15.8023 4.91352 15.2192 4.79764C14.9082 4.52724 14.6167 4.4693 14.3446 4.62381C14.0724 4.73969 13.7809 4.89421 13.4699 5.08735C12.6924 5.58952 12.0704 6.05306 11.6039 6.47797C11.1374 6.86425 10.8264 7.32779 10.671 7.86859C10.5155 7.94584 10.4183 8.06173 10.3794 8.21624C10.3794 8.37075 10.3016 8.46733 10.1462 8.50595C9.95178 8.93086 9.87403 9.37509 9.91291 9.83863C9.95178 10.3022 9.95178 10.7657 9.91291 11.2292C9.87403 11.4996 9.75741 11.7894 9.56304 12.0984C9.40754 12.4074 9.29092 12.6585 9.21317 12.8516C9.1743 13.0448 9.11599 13.1993 9.03824 13.3152C8.99936 13.3924 8.96049 13.4697 8.92162 13.5469C8.84387 13.6628 8.78556 13.7787 8.74668 13.8946C8.74668 14.0105 8.72725 14.1071 8.68837 14.1843C8.494 14.4547 8.39682 14.6092 8.39682 14.6479C8.43569 14.6865 8.43569 14.7444 8.39682 14.8217C8.08582 15.4784 7.94976 15.9998 7.98864 16.3861C8.06639 16.7724 8.06639 17.178 7.98864 17.6029C8.22188 17.7961 8.26076 18.0665 8.10526 18.4141C7.98864 18.7231 7.94976 18.9356 7.98864 19.0515C8.10526 19.3991 8.22188 19.8047 8.3385 20.2683C8.45513 20.6932 8.68837 20.925 9.03824 20.9636C9.34923 20.8477 9.6991 20.8091 10.0878 20.8477C10.5155 20.8863 10.9431 20.9056 11.3707 20.9056C11.9149 20.9829 12.4397 21.0215 12.9451 21.0215C13.4505 20.9829 13.8198 20.8091 14.053 20.5C14.4029 20.3842 14.6944 20.2876 14.9277 20.2103C15.1998 20.1331 15.4719 20.0558 15.744 19.9786C15.8995 19.7854 16.0939 19.6695 16.3271 19.6309C16.5993 19.5923 16.8325 19.5536 17.0269 19.515C17.2601 19.3991 17.4545 19.2639 17.61 19.1094C17.8044 18.9549 17.9987 18.7811 18.1931 18.5879C18.232 18.0858 18.3486 17.6029 18.543 17.1394C18.4652 16.9849 18.4069 16.8304 18.368 16.6758C18.368 16.4827 18.3486 16.3089 18.3097 16.1544C18.3875 15.9612 18.4847 15.826 18.6013 15.7488C18.7179 15.6715 18.7957 15.5363 18.8345 15.3432C18.99 14.9183 19.0289 14.5513 18.9511 14.2423C18.9123 13.9332 18.9317 13.6242 19.0095 13.3152C18.7762 12.8903 18.7373 12.446 18.8928 11.9825C19.0483 11.519 19.0289 11.1134 18.8345 10.7657C18.9123 10.5726 18.9317 10.3215 18.8928 10.0125C18.8928 9.70343 18.8345 9.49098 18.7179 9.37509L18.8345 9.20126ZM15.744 9.31715C15.1998 9.08538 14.8499 8.73772 14.6944 8.27418C14.6167 7.57887 14.7333 7.09602 15.0443 6.82562C15.744 6.94151 16.2105 7.15396 16.4438 7.46299C17.1046 8.23555 17.2212 8.87292 16.7936 9.37509C16.677 9.45235 16.5215 9.51029 16.3271 9.54892C16.1716 9.58755 16.0161 9.56823 15.8607 9.49098L15.744 9.31715ZM11.9538 28.2643C11.6039 29.0369 11.0403 29.5391 10.2628 29.7708C9.83516 29.5777 9.58248 29.3652 9.50473 29.1335C9.46585 28.8631 9.40754 28.6313 9.32979 28.4382C9.40754 27.8587 9.46585 27.4145 9.50473 27.1055C9.58248 26.7965 9.71854 26.584 9.91291 26.4681C10.0684 26.1977 10.2433 26.0432 10.4377 26.0046C10.671 25.9659 10.8848 25.9853 11.0791 26.0625C11.2735 26.2557 11.4679 26.4488 11.6622 26.6419C11.8566 26.8351 11.9538 27.0862 11.9538 27.3952C11.9927 27.5883 11.9732 27.7429 11.8955 27.8587C11.8566 27.9746 11.8761 28.1098 11.9538 28.2643ZM11.0791 32.61C10.2628 32.61 9.91291 32.1272 10.0295 31.1615C10.2628 30.9683 10.496 30.9104 10.7293 30.9876C10.9625 31.0649 11.1374 31.2001 11.2541 31.3932C11.4096 31.5864 11.4873 31.8181 11.4873 32.0885C11.4873 32.3203 11.3513 32.4941 11.0791 32.61ZM1.80765 37.2454C2.42963 37.8248 2.64344 38.5974 2.44907 39.5631C2.29357 39.5631 2.17695 39.6017 2.0992 39.679C2.02146 39.7563 1.94371 39.8335 1.86596 39.9108C1.32172 39.9494 0.952417 39.9108 0.758046 39.7949C0.602549 39.6404 0.447053 39.5245 0.291556 39.4472C0.0971854 39.2155 0.0388741 38.9257 0.116622 38.5781C0.0777483 38.3463 0.0388741 38.1725 0 38.0566C0 37.9407 0.0194371 37.8248 0.0583112 37.709C0.13606 37.3227 0.388741 37.0716 0.816357 36.9557C1.24397 36.8012 1.5744 36.8978 1.80765 37.2454ZM27.348 40.3743C27.4257 40.6833 27.4063 40.9151 27.2896 41.0696C27.173 41.1855 27.1147 41.3593 27.1147 41.5911C26.9203 41.7456 26.7843 41.9581 26.7065 42.2285C26.6288 42.4602 26.4539 42.6147 26.1817 42.692C26.0262 43.001 25.793 43.0976 25.482 42.9817C25.171 42.8272 24.9572 42.6727 24.8406 42.5182C24.7628 42.1705 24.6851 41.9967 24.6073 41.9967C24.5296 41.9581 24.4907 41.8808 24.4907 41.7649C24.6073 41.4173 24.7045 41.1662 24.7823 41.0117C24.8211 40.7026 24.86 40.5288 24.8989 40.4902C24.9766 40.4516 25.0544 40.3936 25.1321 40.3164C25.2099 40.1619 25.2488 40.046 25.2488 39.9687C25.2488 39.8528 25.2876 39.7563 25.3654 39.679C25.5598 39.6017 25.7347 39.5438 25.8902 39.5052C26.0846 39.4665 26.24 39.4086 26.3567 39.3313C26.6677 39.1768 26.862 39.2734 26.9398 39.6211C27.0564 39.9301 27.1925 40.1812 27.348 40.3743ZM23.8493 45.1835C23.9659 45.2608 24.0631 45.3767 24.1408 45.5312C24.2186 45.6471 24.1992 45.7823 24.0825 45.9368C23.8104 46.1299 23.4994 46.2072 23.1496 46.1686C22.7997 46.1686 22.547 46.0334 22.3915 45.763C22.1971 45.6084 22.1194 45.4153 22.1583 45.1835C22.1971 44.9518 22.2749 44.7586 22.3915 44.6041C22.547 44.4496 22.7219 44.3337 22.9163 44.2565C23.1107 44.1792 23.3245 44.1985 23.5577 44.3144C23.6355 44.4303 23.6938 44.5462 23.7327 44.6621C23.8104 44.7779 23.8493 44.9518 23.8493 45.1835Z" fill="#FA4A0C"/>
<path d="M55.5706 42.4602C55.4928 42.7306 55.3179 42.9045 55.0458 42.9817C54.8125 43.0203 54.6376 43.1362 54.521 43.3294C54.2489 43.4839 53.9768 43.5611 53.7046 43.5611C53.4325 43.5611 53.141 43.5805 52.83 43.6191C52.4801 43.5418 52.2663 43.4453 52.1885 43.3294C51.8387 43.368 51.5471 43.2907 51.3139 43.0976C51.1195 42.8658 50.8863 42.692 50.6141 42.5761C50.5364 42.4602 50.4586 42.325 50.3809 42.1705C50.3031 42.016 50.1671 41.9581 49.9727 41.9967C50.0116 41.8036 49.9533 41.649 49.7978 41.5332C49.6423 41.4173 49.5257 41.2821 49.4479 41.1276C49.2535 41.0889 49.098 41.0117 48.9814 40.8958C48.8648 40.7413 48.7093 40.664 48.5149 40.664C48.2817 40.664 48.0873 40.7799 47.9318 41.0117C47.7763 41.2434 47.582 41.398 47.3487 41.4752C47.271 41.5525 47.1738 41.6297 47.0572 41.707C46.9794 41.7842 46.9211 41.8808 46.8822 41.9967C46.6879 41.9967 46.5129 42.0546 46.3574 42.1705C46.2019 42.2478 46.0464 42.3444 45.8909 42.4602C45.2301 42.3444 44.647 42.4216 44.1416 42.692C43.6751 42.9238 43.1309 43.0203 42.5089 42.9817C42.0424 43.059 41.712 43.1169 41.5176 43.1555C41.3621 43.1942 41.1872 43.2135 40.9928 43.2135C40.5652 43.2521 40.2153 43.1942 39.9432 43.0397C39.6711 43.1169 39.4184 43.1169 39.1851 43.0397C38.9519 42.9238 38.6992 42.9045 38.4271 42.9817C38.2327 42.8658 38.0578 42.8658 37.9023 42.9817C37.7468 43.059 37.5524 43.0783 37.3192 43.0397C36.8527 42.8079 36.5417 42.692 36.3862 42.692C36.2696 42.692 36.1335 42.6534 35.978 42.5761C35.9003 42.4989 35.8031 42.4023 35.6865 42.2864C35.5698 42.1705 35.3949 42.1126 35.1617 42.1126C34.7341 41.8422 34.4814 41.6104 34.4036 41.4173C34.3647 41.2241 34.3064 41.0503 34.2287 40.8958C34.0343 40.5481 33.9371 40.3164 33.9371 40.2005C33.976 40.046 33.976 39.8915 33.9371 39.7369C33.7816 39.5438 33.6067 39.37 33.4123 39.2155C33.2568 39.0609 33.1208 38.8871 33.0042 38.694C32.9264 38.4236 32.8681 38.2111 32.8292 38.0566C32.8292 37.9021 32.8098 37.7283 32.7709 37.5351C32.6932 37.1875 32.6154 36.8012 32.5377 36.3763C32.4988 35.9127 32.4794 35.5071 32.4794 35.1595C32.5182 34.8118 32.5182 34.5801 32.4794 34.4642C32.4405 34.3483 32.4599 34.2517 32.5377 34.1745C32.5377 33.3246 32.6737 32.5714 32.9458 31.9147C32.9847 31.6443 33.0042 31.3739 33.0042 31.1035C33.043 30.8331 33.1596 30.64 33.354 30.5241C33.4706 30.0219 33.6067 29.6743 33.7622 29.4811C33.9177 29.2494 34.0538 28.979 34.1704 28.6699C34.4425 28.3995 34.5786 28.2643 34.5786 28.2643C34.6174 28.2257 34.6369 28.1871 34.6369 28.1484C34.8312 28.0326 34.9479 27.936 34.9867 27.8587C35.0645 27.7429 35.1617 27.7042 35.2783 27.7429C35.5893 27.3179 35.9197 26.9896 36.2696 26.7578C36.6583 26.4874 37.0665 26.2363 37.4941 26.0046C38.3493 25.6569 39.1463 25.4252 39.8849 25.3093C40.6235 25.1548 41.2843 25.1161 41.8675 25.1934C42.023 25.0389 42.3145 24.9616 42.7421 24.9616C43.1697 24.923 43.5002 24.9809 43.7334 25.1354C43.8889 25.29 44.0055 25.3672 44.0833 25.3672C44.1999 25.3286 44.2971 25.3286 44.3748 25.3672C44.4915 25.4058 44.6081 25.4831 44.7247 25.599C44.8802 25.6762 45.0551 25.7342 45.2495 25.7728C45.716 25.8501 45.9687 25.908 46.0076 25.9466C46.0464 25.9853 46.1047 26.0239 46.1825 26.0625C46.5712 26.1784 46.9794 26.217 47.407 26.1784C47.8346 26.1398 48.1456 25.9659 48.34 25.6569C48.4178 25.5797 48.4955 25.4252 48.5732 25.1934C48.651 24.9616 48.7093 24.7878 48.7482 24.6719C48.7871 24.556 48.7871 24.4208 48.7482 24.2663C48.7093 24.0732 48.6704 23.9186 48.6316 23.8028C48.5538 23.262 48.5149 22.6439 48.5149 21.9486C48.5149 21.2147 48.4955 20.5966 48.4566 20.0944C48.3789 19.2446 48.2428 18.3755 48.0484 17.487C47.9707 17.2166 47.8929 16.9656 47.8152 16.7338C47.7375 16.502 47.6014 16.3089 47.407 16.1544C47.2127 15.4977 46.96 14.9376 46.649 14.474C46.338 14.0105 45.9687 13.6049 45.5411 13.2572C45.2301 13.2572 44.9968 13.1993 44.8413 13.0834C44.7247 12.9289 44.5498 12.8323 44.3165 12.7937C43.7723 12.6392 43.3058 12.6199 42.9171 12.7358C42.5672 12.813 42.2368 12.8323 41.9258 12.7937C41.7314 12.7551 41.5565 12.7551 41.401 12.7937C41.2843 12.8323 41.1288 12.871 40.9345 12.9096C40.5846 12.8323 40.2931 12.8516 40.0598 12.9675C39.8654 13.0448 39.6711 13.122 39.4767 13.1993C39.1657 13.3538 38.9325 13.489 38.777 13.6049C38.5048 13.7208 38.2522 13.8367 38.0189 13.9525C37.7857 14.0298 37.5719 14.165 37.3775 14.3581C37.2609 14.474 37.1054 14.5899 36.911 14.7058C36.7555 14.8217 36.6 14.9762 36.4445 15.1693C36.3279 15.2852 36.1918 15.4397 36.0363 15.6329C35.9197 15.826 35.8031 16.0192 35.6865 16.2123C35.3755 16.7531 35.22 17.0814 35.22 17.1973C35.22 17.3132 35.2589 17.5257 35.3366 17.8347C35.4143 17.9119 35.4727 18.0085 35.5115 18.1244C35.5893 18.2017 35.6476 18.2982 35.6865 18.4141C35.9197 18.8777 36.0752 19.1287 36.153 19.1674C36.2307 19.1674 36.289 19.206 36.3279 19.2833C36.4834 19.206 36.6 19.206 36.6778 19.2833C36.7944 19.3219 36.9304 19.3412 37.0859 19.3412C37.2803 19.3026 37.4747 19.2446 37.669 19.1674C37.9023 19.0515 38.1355 18.9935 38.3688 18.9935C38.4077 18.6845 38.4077 18.3948 38.3688 18.1244C38.3299 17.8154 38.3493 17.545 38.4271 17.3132C38.6992 16.7724 38.9908 16.3861 39.3018 16.1544C39.6516 15.7681 40.0987 15.517 40.6429 15.4011C40.7984 15.3238 40.9345 15.2466 41.0511 15.1693C41.2066 15.0535 41.3815 14.9955 41.5759 14.9955C41.9646 15.2273 42.2173 15.3432 42.3339 15.3432C42.4894 15.3045 42.6255 15.3238 42.7421 15.4011C43.2086 15.4397 43.5779 15.5363 43.85 15.6908C44.161 15.8067 44.4137 16.0578 44.6081 16.4441C44.6858 16.6372 44.7247 16.8497 44.7247 17.0814C44.7636 17.2746 44.8802 17.4484 45.0746 17.6029C45.1523 17.7574 45.1718 17.9119 45.1329 18.0665C45.094 18.1823 45.1134 18.3369 45.1912 18.53C45.1912 18.7231 45.2301 18.9163 45.3078 19.1094C45.3856 19.2639 45.3856 19.4378 45.3078 19.6309C45.1912 19.824 45.0551 20.0558 44.8996 20.3262C44.783 20.558 44.6664 20.7125 44.5498 20.7898C44.5109 21.0215 44.4137 21.2147 44.2582 21.3692C44.1027 21.5237 43.9472 21.6782 43.7917 21.8327C43.714 21.9486 43.6362 22.0645 43.5585 22.1804C43.4807 22.2963 43.3447 22.3928 43.1503 22.4701C42.6061 22.7019 42.2562 22.8371 42.1007 22.8757C41.9452 22.9143 41.8091 22.9723 41.6925 23.0495C41.2649 23.3199 40.9539 23.4551 40.7595 23.4551C40.604 23.4551 40.4291 23.4937 40.2347 23.571C39.7683 23.7255 39.4767 23.7834 39.3601 23.7448C39.2435 23.7062 39.1463 23.7062 39.0685 23.7448C38.8741 23.7448 38.6603 23.7834 38.4271 23.8607C38.1938 23.938 37.9606 23.9573 37.7274 23.9186C37.3386 23.8414 37.1248 23.8221 37.0859 23.8607C37.0471 23.8607 37.0082 23.8607 36.9693 23.8607C36.5806 23.7834 36.289 23.6096 36.0946 23.3392C35.9003 23.0302 35.5504 22.8757 35.045 22.8757C34.6174 22.6053 34.2676 22.4315 33.9954 22.3542C33.7233 22.2383 33.5289 22.0452 33.4123 21.7748C32.907 21.4271 32.5765 21.176 32.421 21.0215C32.3044 20.867 32.1684 20.7318 32.0129 20.6159C31.8574 20.2296 31.6824 19.8627 31.4881 19.515C31.2937 19.1674 31.1771 18.7811 31.1382 18.3562C31.0993 18.0858 31.0799 17.7767 31.0799 17.4291C31.0799 17.0428 31.0993 16.6952 31.1382 16.3861C31.2159 15.884 31.3131 15.5363 31.4297 15.3432C31.5852 15.15 31.7019 14.9183 31.7796 14.6479C31.8574 14.532 31.8962 14.4161 31.8962 14.3002C31.8962 14.1457 31.9351 14.0105 32.0129 13.8946C32.2072 13.5469 32.4016 13.3152 32.596 13.1993C32.9458 12.5426 33.2568 12.1177 33.5289 11.9246C33.8011 11.7314 34.0926 11.5576 34.4036 11.4031C35.0256 11.1327 35.5115 10.9202 35.8614 10.7657C36.2501 10.5726 36.6778 10.4567 37.1442 10.4181C37.533 10.3794 37.9023 10.3408 38.2522 10.3022C38.602 10.2249 38.9325 10.0897 39.2435 9.89657C39.8266 9.81932 40.3514 9.78069 40.8179 9.78069C41.3232 9.78069 41.8091 9.74206 42.2756 9.6648C42.4311 9.70343 42.5866 9.70343 42.7421 9.6648C42.8976 9.58755 43.0531 9.54892 43.2086 9.54892C43.6362 9.62617 43.9861 9.6648 44.2582 9.6648C44.5692 9.62617 44.8996 9.62617 45.2495 9.6648C45.3661 9.70343 45.4827 9.74206 45.5994 9.78069C45.7549 9.81932 45.8909 9.85794 46.0076 9.89657C46.3574 9.97383 46.7073 10.0704 47.0572 10.1863C47.4459 10.2635 47.7763 10.3987 48.0484 10.5919C49.2535 10.8237 50.0893 11.4224 50.5558 12.3881C50.6336 12.7358 50.7113 12.9868 50.7891 13.1413C50.8668 13.2572 50.9251 13.4117 50.964 13.6049C51.0806 13.798 51.1973 13.9912 51.3139 14.1843C51.4694 14.3388 51.6249 14.5127 51.7804 14.7058C52.0136 15.1307 52.1885 15.517 52.3052 15.8646C52.4218 16.2123 52.5773 16.56 52.7717 16.9076C52.8494 17.0621 52.9077 17.2166 52.9466 17.3711C53.0243 17.487 53.1021 17.6415 53.1798 17.8347C53.3353 18.1823 53.3936 18.3755 53.3548 18.4141C53.3548 18.4527 53.3548 18.4914 53.3548 18.53C53.3936 18.7231 53.452 18.9163 53.5297 19.1094C53.6463 19.2639 53.7241 19.4378 53.7629 19.6309C53.6852 19.9013 53.6852 20.1717 53.7629 20.4421C53.8796 20.7125 53.899 20.9443 53.8213 21.1374C53.9768 21.4464 54.0545 21.7941 54.0545 22.1804C54.0545 22.528 54.0739 22.9143 54.1128 23.3392C54.1906 23.4551 54.21 23.571 54.1711 23.6869C54.1322 23.8028 54.1128 23.9186 54.1128 24.0345C54.1128 24.2277 54.1322 24.4208 54.1711 24.614C54.2489 24.8071 54.2683 25.0002 54.2294 25.1934C54.1906 25.4638 54.1906 25.6569 54.2294 25.7728C54.2683 25.8501 54.2877 25.9466 54.2877 26.0625C54.2489 26.217 54.2294 26.3909 54.2294 26.584C54.2683 26.7385 54.2683 26.9123 54.2294 27.1055C54.1906 27.3373 54.1517 27.569 54.1128 27.8008C54.0739 27.9939 54.0351 28.1871 53.9962 28.3802C53.9573 28.5347 53.9184 28.6699 53.8796 28.7858C53.8407 28.9017 53.8407 29.0369 53.8796 29.1914C53.9573 29.6936 53.9184 30.1185 53.7629 30.4661C53.6852 30.9683 53.6074 31.4898 53.5297 32.0306C53.4908 32.5328 53.4325 33.0349 53.3548 33.5371C53.4325 33.8848 53.452 34.2131 53.4131 34.5221C53.4131 34.7925 53.3936 35.1402 53.3548 35.5651C53.3936 36.0286 53.4325 36.4535 53.4714 36.8398C53.5491 37.2261 53.6852 37.5544 53.8796 37.8248C54.5016 37.9407 54.9292 38.0373 55.1624 38.1146C55.3957 38.1918 55.5512 38.327 55.6289 38.5201C55.7844 38.8292 55.9399 39.0996 56.0954 39.3313C56.2509 39.5245 56.3675 39.7563 56.4453 40.0267C56.523 40.2198 56.5424 40.355 56.5036 40.4323C56.4647 40.5095 56.4258 40.6447 56.387 40.8378C56.3092 40.9924 56.2898 41.1276 56.3286 41.2434C56.3675 41.3207 56.3481 41.4559 56.2703 41.649C56.1148 41.7649 56.0176 41.9001 55.9788 42.0546C55.9788 42.1705 55.9399 42.2671 55.8621 42.3444L55.5706 42.4602ZM38.4854 31.5091C38.291 32.1272 38.155 32.5134 38.0772 32.668C38.1161 33.1315 38.1161 33.4792 38.0772 33.7109C38.0384 33.9427 37.9995 34.1552 37.9606 34.3483C37.8051 34.8505 37.7857 35.2754 37.9023 35.623C37.9412 35.8162 37.9995 36.0479 38.0772 36.3183C38.155 36.5887 38.2327 36.7626 38.3105 36.8398C38.3882 37.3806 38.602 37.7669 38.9519 37.9987C39.3018 38.1918 39.6322 38.385 39.9432 38.5781C40.7207 38.694 41.2843 38.6553 41.6342 38.4622C42.023 38.2304 42.4311 38.1339 42.8587 38.1725C43.1309 37.9021 43.4807 37.7669 43.9083 37.7669C44.336 37.4579 44.5692 37.3034 44.6081 37.3034C44.647 37.2647 44.7053 37.2261 44.783 37.1875C45.094 37.033 45.3078 36.9364 45.4244 36.8978C45.5799 36.8205 45.7549 36.7432 45.9492 36.666C46.1436 36.5887 46.3574 36.4535 46.5907 36.2604C46.8628 36.0673 47.0377 35.8934 47.1155 35.7389C47.3876 35.314 47.5236 34.7925 47.5236 34.1745C47.5236 33.9813 47.5431 33.8268 47.582 33.7109C47.6597 33.595 47.6986 33.4405 47.6986 33.2474C47.5431 32.9384 47.4653 32.7066 47.4653 32.5521C47.5042 32.243 47.5042 32.0499 47.4653 31.9727C47.4265 31.8954 47.3876 31.8181 47.3487 31.7409C47.2321 31.3932 47.1349 31.1421 47.0572 30.9876C46.9794 30.8331 46.9405 30.64 46.9405 30.4082C46.6295 29.9447 46.3769 29.6936 46.1825 29.655C46.027 29.5777 45.8521 29.5004 45.6577 29.4232C45.3078 29.5391 44.958 29.5198 44.6081 29.3652C44.2971 29.2107 44.0055 29.2107 43.7334 29.3652C42.9559 29.3652 42.2562 29.5391 41.6342 29.8867C41.0122 30.1957 40.3708 30.4468 39.7099 30.64C39.5156 30.6786 39.3406 30.7172 39.1851 30.7559C39.0685 30.7945 38.9325 30.8524 38.777 30.9297C38.777 31.0842 38.7381 31.2001 38.6603 31.2773C38.5826 31.3546 38.5243 31.4319 38.4854 31.5091ZM55.1624 11.7507C55.5512 11.8666 55.8233 12.0018 55.9788 12.1563C56.1731 12.2722 56.3481 12.4654 56.5036 12.7358C56.6591 13.0062 56.7368 13.2959 56.7368 13.6049C56.7757 13.9139 56.6979 14.165 56.5036 14.3581C56.3092 14.4354 56.1926 14.5127 56.1537 14.5899C56.1148 14.6285 56.0565 14.6865 55.9788 14.7637C55.6678 15.0728 55.3373 15.15 54.9875 14.9955C54.6376 14.8024 54.2877 14.6479 53.9379 14.532C53.7435 14.3002 53.588 14.0298 53.4714 13.7208C53.3548 13.4117 53.2965 13.0834 53.2965 12.7358C53.452 12.5426 53.588 12.3688 53.7046 12.2143C53.8601 12.0211 54.0934 11.9439 54.4044 11.9825C54.521 11.9052 54.7737 11.828 55.1624 11.7507ZM33.354 24.2663C33.3929 24.5367 33.4706 24.7685 33.5873 24.9616C33.7428 25.1548 33.7816 25.4058 33.7039 25.7149C33.2763 26.1784 32.8875 26.4102 32.5377 26.4102C31.9545 26.1398 31.5464 25.8501 31.3131 25.541C31.1188 25.1934 31.1188 24.7878 31.3131 24.3242C31.4297 24.2084 31.6047 24.0732 31.8379 23.9186C32.1489 23.8028 32.421 23.8221 32.6543 23.9766C32.9264 24.0925 33.1596 24.189 33.354 24.2663ZM56.0371 31.5091C56.1926 31.4705 56.2898 31.4319 56.3286 31.3932C56.4064 31.316 56.523 31.316 56.6785 31.3932C56.8729 31.4705 56.9895 31.6443 57.0284 31.9147C57.1061 32.1851 57.1061 32.4362 57.0284 32.668C56.9118 32.7452 56.7951 32.8032 56.6785 32.8418C56.6008 32.8804 56.5036 32.8997 56.387 32.8997C56.1148 32.8225 55.9593 32.6293 55.9205 32.3203C55.8816 32.0113 55.9205 31.7409 56.0371 31.5091ZM55.6289 36.8398C55.3179 36.5694 55.1819 36.2797 55.2207 35.9707C55.2985 35.6617 55.3373 35.3526 55.3373 35.0436C55.4928 34.7732 55.6289 34.638 55.7455 34.638C55.901 34.5994 56.0371 34.5414 56.1537 34.4642C56.5036 34.4642 56.8146 34.5028 57.0867 34.5801C57.3588 34.6187 57.5143 34.7732 57.5532 35.0436C57.7475 35.3526 57.7864 35.6037 57.6698 35.7969C57.592 35.9514 57.5337 36.1252 57.4949 36.3183C57.3005 36.5115 57.0089 36.6853 56.6202 36.8398C56.2703 36.9943 55.9788 37.0716 55.7455 37.0716L55.6289 36.8398ZM31.8962 41.9388C32.285 41.8615 32.6154 41.9001 32.8875 42.0546C33.1985 42.2092 33.3151 42.4796 33.2374 42.8658C33.2374 43.1749 33.1402 43.368 32.9458 43.4453C32.7903 43.5225 32.6154 43.6384 32.421 43.7929C31.9934 43.7157 31.7213 43.4646 31.6047 43.0397C31.4881 42.5761 31.5852 42.2092 31.8962 41.9388Z" fill="#FA4A0C"/>
<path d="M80.4695 6.99945C80.5084 7.19259 80.5084 7.36642 80.4695 7.52093C80.4695 7.63682 80.3917 7.79133 80.2362 7.98447C80.1585 8.13898 80.0613 8.27418 79.9447 8.39007C79.8281 8.46733 79.6531 8.52527 79.4199 8.5639C78.9534 8.5639 78.5841 8.46733 78.312 8.27418C78.312 8.08104 78.2537 7.94584 78.137 7.86859C78.0204 7.7527 78.001 7.59819 78.0787 7.40505C78.312 6.67111 78.7007 6.32345 79.2449 6.36208C79.8281 6.36208 80.2362 6.57454 80.4695 6.99945ZM62.5679 10.0125C63.1122 10.4374 63.3454 10.9202 63.2677 11.461C63.2288 11.9632 63.0344 12.2915 62.6846 12.446C62.5291 12.3302 62.3541 12.3108 62.1598 12.3881C62.0043 12.4267 61.8099 12.4074 61.5766 12.3302C61.4212 11.7121 61.4406 11.2099 61.635 10.8237C61.8293 10.4374 62.1403 10.167 62.5679 10.0125ZM73.3555 23.1075C73.2778 22.7598 73.2972 22.4508 73.4138 22.1804C73.5693 21.91 73.6665 21.6203 73.7054 21.3112C73.8609 21.234 74.0164 21.1567 74.1719 21.0795C74.3274 20.9636 74.4829 20.8863 74.6384 20.8477C74.9882 20.6546 75.3575 20.5966 75.7463 20.6739C76.1739 20.7125 76.3877 20.8863 76.3877 21.1954C76.3877 21.2726 76.3488 21.3885 76.2711 21.543C76.2322 21.6589 76.1933 21.7555 76.1544 21.8327C76.0378 22.0259 75.8823 22.219 75.688 22.4121C75.5325 22.6053 75.4158 22.7984 75.3381 22.9916C75.066 23.3006 74.7744 23.5517 74.4634 23.7448C74.1913 23.938 73.8414 23.9766 73.4138 23.8607C73.3361 23.7834 73.2972 23.6869 73.2972 23.571C73.3361 23.4165 73.3166 23.3006 73.2389 23.2233L73.3555 23.1075ZM79.3033 20.8477C79.381 21.0408 79.4004 21.2533 79.3616 21.4851C79.3616 21.6782 79.2644 21.8134 79.07 21.8907C78.9534 21.9679 78.8173 22.0065 78.6618 22.0065C78.5063 22.0065 78.3703 22.0452 78.2537 22.1224C78.137 22.0452 78.001 21.9679 77.8455 21.8907C77.69 21.8134 77.5928 21.6975 77.5539 21.543C77.515 21.3885 77.5539 21.2533 77.6705 21.1374C77.826 20.9829 78.001 20.867 78.1953 20.7898C78.3897 20.6739 78.5841 20.6352 78.7785 20.6739C79.0117 20.6739 79.1866 20.7318 79.3033 20.8477ZM64.0257 45.8788C64.2201 45.6857 64.4339 45.6664 64.6671 45.8209C64.9004 45.9368 65.1142 46.014 65.3086 46.0527C65.6584 46.1686 65.9111 46.2844 66.0666 46.4003C66.2221 46.5162 66.3387 46.6514 66.4165 46.8059C66.4942 46.9991 66.5137 47.1729 66.4748 47.3274C66.4359 47.5205 66.3387 47.6557 66.1832 47.733C66.2221 47.9261 66.1638 48.0613 66.0083 48.1386C65.8528 48.2159 65.7556 48.3511 65.7167 48.5442C65.5612 48.5828 65.4252 48.6215 65.3086 48.6601C65.2308 48.7373 65.1142 48.7567 64.9587 48.718C64.7255 48.718 64.5311 48.6408 64.3756 48.4863C64.259 48.3317 64.1618 48.1579 64.084 47.9648C64.0063 47.7716 63.9285 47.5592 63.8508 47.3274C63.8119 47.0956 63.7342 46.9025 63.6175 46.748C63.6175 46.5548 63.6759 46.4003 63.7925 46.2844C63.948 46.2072 64.0257 46.072 64.0257 45.8788ZM64.084 2.65376C64.3561 2.42199 64.4922 2.24817 64.4922 2.13228C64.6866 1.97777 64.881 1.84257 65.0753 1.72669C65.3086 1.57217 65.5612 1.41766 65.8334 1.26315C66.1055 1.30177 66.397 1.30177 66.708 1.26315C67.019 1.22452 67.3106 1.24383 67.5827 1.32109C68.1269 1.51423 68.574 1.70737 68.9239 1.90051C69.3126 2.09365 69.6819 2.2868 70.0318 2.47994C70.1095 2.71171 70.2067 2.88553 70.3233 3.00142C70.4788 3.1173 70.6538 3.23319 70.8481 3.34907C71.0425 3.61947 71.1786 3.90918 71.2563 4.21821C71.3729 4.52724 71.4701 4.89421 71.5479 5.31912C71.6256 5.66677 71.6256 5.99511 71.5479 6.30414C71.4701 6.61317 71.4118 6.94151 71.3729 7.28916C71.3341 7.67544 71.3146 8.04241 71.3146 8.39007C71.3146 8.73772 71.2174 9.02744 71.0231 9.2592C71.0231 9.72274 70.9648 10.2056 70.8481 10.7078C70.7704 11.2099 70.7704 11.6735 70.8481 12.0984C70.7704 12.2915 70.7315 12.5233 70.7315 12.7937C70.7704 13.0641 70.7898 13.3152 70.7898 13.5469C70.9064 13.8173 71.1008 13.9719 71.3729 14.0105C71.6451 14.0491 71.9366 14.0684 72.2476 14.0684C72.5975 14.0298 72.9279 14.0105 73.2389 14.0105C73.5499 14.0105 73.8026 14.0877 73.9969 14.2423C75.0077 14.2036 75.9018 14.2036 76.6793 14.2423C77.0291 14.2036 77.2235 14.165 77.2624 14.1264C77.3401 14.0491 77.4179 13.9912 77.4956 13.9525H78.4869C78.8368 13.9912 79.1283 14.0491 79.3616 14.1264C79.5948 14.165 79.8475 14.2036 80.1196 14.2423C80.314 14.2809 80.5084 14.3002 80.7027 14.3002C80.8971 14.3002 81.0915 14.3968 81.2858 14.5899C81.4025 15.0535 81.4996 15.3818 81.5774 15.5749C81.6551 15.7681 81.7329 15.9612 81.8106 16.1544C81.9273 17.0042 81.9078 17.6802 81.7523 18.1823C81.6357 18.6459 81.4219 19.0322 81.1109 19.3412C80.8777 19.3412 80.6639 19.3991 80.4695 19.515C80.314 19.5923 80.1196 19.6116 79.8864 19.573C79.4588 19.6116 79.0895 19.6116 78.7785 19.573C78.5063 19.5343 78.2537 19.5923 78.0204 19.7468C77.7094 19.7854 77.4567 19.7661 77.2624 19.6888C77.1069 19.6116 76.9514 19.515 76.7959 19.3991C76.5238 19.4764 76.2905 19.4571 76.0961 19.3412C75.9018 19.2253 75.6685 19.1674 75.3964 19.1674C74.9688 19.0129 74.5606 18.839 74.1719 18.6459C73.822 18.4527 73.4333 18.3948 73.0056 18.4721C72.578 18.5107 72.3448 18.6073 72.3059 18.7618C72.267 18.9163 72.2476 19.1867 72.2476 19.573C72.2476 19.9979 72.2282 20.4035 72.1893 20.7898C72.1504 21.176 72.1115 21.543 72.0727 21.8907C71.7617 22.1997 71.5673 22.586 71.4896 23.0495C71.4118 23.5131 71.2369 23.8993 70.9648 24.2084C70.887 24.5174 70.8481 24.8264 70.8481 25.1354C70.8481 25.4445 70.8481 25.7728 70.8481 26.1205C70.7315 26.3909 70.6732 26.7385 70.6732 27.1634C70.6732 27.5497 70.576 27.8587 70.3816 28.0905C70.3428 28.6699 70.2845 29.23 70.2067 29.7708C70.1678 30.3116 70.1678 30.9104 70.2067 31.5671C70.0512 32.1465 70.0123 32.668 70.0901 33.1315C70.129 33.7496 70.0901 34.3676 69.9735 34.9857C69.8568 35.6037 69.818 36.1831 69.8568 36.7239C69.8957 37.6896 69.8763 38.5008 69.7985 39.1575C69.7208 39.8142 69.8763 40.4129 70.265 40.9537C70.576 41.3014 70.8481 41.5718 71.0814 41.7649C71.3535 41.9581 71.6062 42.2092 71.8394 42.5182C72.4614 42.8658 72.9862 43.0783 73.4138 43.1555C73.8414 43.2328 74.2691 43.2714 74.6967 43.2714C75.1632 43.2714 75.6297 43.2521 76.0961 43.2135C76.5626 43.1749 76.9902 43.1555 77.379 43.1555C77.69 43.0397 77.9621 42.9431 78.1953 42.8658C78.4675 42.75 78.7979 42.692 79.1866 42.692C79.3033 42.6147 79.4004 42.5375 79.4782 42.4602C79.5559 42.3444 79.6531 42.2478 79.7697 42.1705C79.8086 41.8615 79.9252 41.5525 80.1196 41.2434C80.314 40.9344 80.3917 40.6254 80.3529 40.3164C80.2751 39.7756 80.2557 39.3893 80.2945 39.1575C80.3723 38.8871 80.3917 38.6167 80.3529 38.3463C80.0807 37.96 79.9447 37.4772 79.9447 36.8978C79.9058 36.5501 79.8086 36.357 79.6531 36.3183C79.4976 36.2411 79.381 36.1445 79.3033 36.0286C78.9534 36.0286 78.6618 36.0673 78.4286 36.1445C78.1953 36.2218 77.9427 36.3183 77.6705 36.4342C77.5539 36.6274 77.4956 36.8398 77.4956 37.0716C77.5345 37.3034 77.5539 37.5351 77.5539 37.7669C77.5928 37.96 77.5928 38.1532 77.5539 38.3463C77.5539 38.5395 77.4956 38.7133 77.379 38.8678C77.3012 39.0223 77.1069 39.2155 76.7959 39.4472C76.4849 39.679 76.2322 39.8335 76.0378 39.9108C75.8823 40.1425 75.7268 40.2391 75.5713 40.2005C75.4547 40.1619 75.2992 40.1039 75.1049 40.0267C74.9105 39.9494 74.7744 39.9108 74.6967 39.9108C74.6578 39.9108 74.5995 39.8335 74.5217 39.679C74.444 39.6017 74.3274 39.5245 74.1719 39.4472C74.0164 39.3313 73.9581 39.1961 73.9969 39.0416C73.5693 38.7326 73.2778 38.5008 73.1223 38.3463C73.0056 38.1918 72.8696 38.018 72.7141 37.8248C72.5975 37.5158 72.5392 37.3227 72.5392 37.2454C72.578 37.1682 72.5975 37.0909 72.5975 37.0136C72.3642 36.5501 72.267 36.1252 72.3059 35.7389C72.3837 35.2754 72.4614 34.9857 72.5392 34.8698C72.6169 34.7539 72.6947 34.5994 72.7724 34.4062C73.0445 33.9813 73.3361 33.6916 73.6471 33.5371C73.9581 33.344 74.2691 33.1122 74.58 32.8418C74.8522 32.4555 75.1437 32.1851 75.4547 32.0306C75.7657 31.8761 76.1156 31.7602 76.5043 31.6829C76.6987 31.6443 76.8736 31.625 77.0291 31.625C77.2235 31.625 77.3596 31.6829 77.4373 31.7988C77.6317 31.7216 77.8066 31.7216 77.9621 31.7988C78.1176 31.8375 78.2731 31.8375 78.4286 31.7988C78.5841 31.7988 78.7201 31.7795 78.8368 31.7409C78.9923 31.7023 79.1672 31.7409 79.3616 31.8568C79.4782 31.7795 79.5948 31.7602 79.7114 31.7988C79.8669 31.8375 80.003 31.8375 80.1196 31.7988C80.314 31.8761 80.5278 31.9727 80.761 32.0885C80.9943 32.2044 81.2275 32.3203 81.4608 32.4362C81.8884 32.5521 82.0828 32.6293 82.0439 32.668C82.0439 32.7066 82.0633 32.7452 82.1022 32.7838C82.2188 32.8997 82.3354 32.977 82.4521 33.0156C82.5687 33.0156 82.7048 33.0542 82.8602 33.1315C83.0546 33.2088 83.1712 33.286 83.2101 33.3633C83.2879 33.4405 83.3656 33.4792 83.4434 33.4792C83.5211 33.7109 83.5794 33.962 83.6183 34.2324C83.6572 34.5028 83.7155 34.7925 83.7932 35.1015C83.871 35.2947 83.9876 35.5844 84.1431 35.9707C84.2986 36.3183 84.2792 36.5887 84.0848 36.7819C84.2792 37.0909 84.2986 37.4192 84.1431 37.7669C84.2597 37.9987 84.318 38.2498 84.318 38.5201C84.3569 38.7519 84.3763 38.9837 84.3763 39.2155C84.3763 39.5245 84.2986 39.8335 84.1431 40.1425C84.0265 40.4516 83.9487 40.7606 83.9098 41.0696C83.871 41.4173 83.8321 41.7842 83.7932 42.1705C83.7543 42.5182 83.696 42.8658 83.6183 43.2135C83.5017 43.4066 83.4045 43.5805 83.3267 43.735C83.2879 43.8895 83.2295 44.1019 83.1518 44.3723C83.0352 44.6814 82.8602 44.8938 82.627 45.0097C82.3938 45.1256 82.2383 45.3187 82.1605 45.5891C82.0439 45.6278 81.9273 45.6857 81.8106 45.763C81.694 45.8016 81.5968 45.8788 81.5191 45.9947C80.8194 46.4969 80.1585 46.8252 79.5365 46.9797C78.9145 47.1729 78.3508 47.424 77.8455 47.733C77.6511 47.6944 77.4567 47.7137 77.2624 47.7909C77.1069 47.9068 76.9125 47.9261 76.6793 47.8489C76.5238 47.8489 76.3488 47.8296 76.1544 47.7909C75.999 47.7909 75.824 47.7909 75.6297 47.7909C75.202 47.9068 74.891 47.8682 74.6967 47.6751C74.5412 47.4819 74.3079 47.366 73.9969 47.3274C73.7248 47.3274 73.4721 47.3467 73.2389 47.3853C73.0056 47.424 72.8307 47.2888 72.7141 46.9797C72.3642 46.8639 72.0338 46.8639 71.7228 46.9797C71.5673 46.9025 71.4118 46.8446 71.2563 46.8059C71.1397 46.8059 71.0036 46.7673 70.8481 46.69C70.5371 46.7287 70.2456 46.69 69.9735 46.5742C69.7013 46.4583 69.4292 46.3038 69.1571 46.1106C68.885 45.9175 68.6323 45.705 68.3991 45.4732C68.1658 45.2415 67.9326 45.0483 67.6993 44.8938C67.4272 44.7393 67.1551 44.6234 66.883 44.5462C66.6497 44.4689 66.4165 44.3917 66.1832 44.3144C66.0666 44.1985 65.95 44.1019 65.8334 44.0247C65.7556 43.9088 65.6584 43.8122 65.5418 43.735C65.4252 43.1555 65.2891 42.7886 65.1336 42.6341C65.017 42.4796 64.9393 42.2864 64.9004 42.0546C64.9004 41.9001 64.9004 41.8036 64.9004 41.7649C64.9393 41.6877 64.9393 41.5718 64.9004 41.4173C64.8226 41.2628 64.7838 41.1276 64.7838 41.0117C64.8226 40.8572 64.7838 40.7026 64.6671 40.5481C64.7449 40.4709 64.7255 40.355 64.6088 40.2005C64.4922 40.0073 64.4339 39.8142 64.4339 39.6211C64.395 39.3893 64.2978 39.1575 64.1423 38.9257C64.0257 38.694 64.0063 38.4622 64.084 38.2304C64.1229 38.0373 64.1229 37.8248 64.084 37.5931C64.084 37.3613 64.0257 37.1682 63.9091 37.0136C63.8313 36.7432 63.8119 36.4922 63.8508 36.2604C63.8897 35.99 63.9091 35.7196 63.9091 35.4492C63.9091 35.3333 63.8702 35.2174 63.7925 35.1015C63.7536 34.947 63.7342 34.7732 63.7342 34.5801C63.7342 34.4255 63.7147 34.2517 63.6759 34.0586C63.6759 33.8268 63.7147 33.6337 63.7925 33.4792C63.6759 33.2474 63.637 32.9963 63.6759 32.7259C63.7147 32.4555 63.7536 32.1658 63.7925 31.8568C63.8702 31.5477 63.8897 31.2773 63.8508 31.0456C63.8508 30.7752 63.8702 30.4661 63.9091 30.1185C63.948 29.9254 63.9868 29.7515 64.0257 29.597C64.1035 29.4425 64.1618 29.2687 64.2007 29.0755C64.2784 28.6892 64.3173 28.303 64.3173 27.9167C64.3561 27.5304 64.4922 27.1634 64.7255 26.8158C64.7255 26.5454 64.7643 26.3715 64.8421 26.2943C64.9198 26.1784 64.9393 26.0625 64.9004 25.9466C64.9004 25.6376 64.9198 25.3865 64.9587 25.1934C65.0364 25.0002 65.0364 24.7878 64.9587 24.556C64.881 24.3629 64.8032 24.1311 64.7255 23.8607C64.6477 23.5903 64.6477 23.3585 64.7255 23.1654C64.7255 22.9336 64.6477 22.6632 64.4922 22.3542C64.3756 22.0065 64.4533 21.7168 64.7255 21.4851C64.7643 21.2919 64.8226 21.0988 64.9004 20.9056C64.9781 20.7125 65.0364 20.5 65.0753 20.2683V19.3991C65.0364 19.206 64.9587 19.0708 64.8421 18.9935C64.7255 18.8777 64.6671 18.7231 64.6671 18.53C64.4339 18.4914 64.2395 18.53 64.084 18.6459C63.9285 18.7618 63.7536 18.839 63.5592 18.8777C63.326 18.9163 63.0927 18.9549 62.8595 18.9935C62.6263 19.0322 62.4708 19.1867 62.393 19.4571C62.1598 19.4957 61.9654 19.573 61.8099 19.6888C61.6544 19.7661 61.4795 19.8434 61.2851 19.9206C61.1296 19.9979 60.9158 20.0944 60.6437 20.2103C60.3715 20.3262 60.1772 20.3455 60.0606 20.2683C59.8662 20.191 59.6718 20.0944 59.4774 19.9786C59.3219 19.824 59.1081 19.7082 58.836 19.6309C58.7194 19.5923 58.5833 19.573 58.4278 19.573C58.2723 19.573 58.1363 19.515 58.0197 19.3991C57.4754 18.9356 57.0672 18.221 56.7951 17.2553C56.523 17.0621 56.387 16.6952 56.387 16.1544C56.4258 15.8453 56.4453 15.5749 56.4453 15.3432C56.4064 15.0728 56.4258 14.841 56.5036 14.6479C56.6591 14.3002 56.7757 14.1071 56.8534 14.0684C56.9312 13.9912 57.0089 13.9139 57.0867 13.8367C57.1644 13.7208 57.2616 13.6049 57.3782 13.489C57.456 13.3345 57.592 13.2572 57.7864 13.2572C58.1363 13.0641 58.3695 12.9482 58.4862 12.9096C58.6028 12.871 58.7583 12.8516 58.9526 12.8516C59.2248 12.8516 59.4774 12.9289 59.7107 13.0834C59.9439 13.2379 60.2161 13.3538 60.527 13.4311C60.6825 13.4697 60.8186 13.489 60.9352 13.489C61.0907 13.4504 61.2462 13.4504 61.4017 13.489C61.635 13.5663 61.8488 13.6821 62.0431 13.8367C62.2764 13.9912 62.4902 14.0684 62.6846 14.0684C62.8012 14.0684 62.9372 14.0298 63.0927 13.9525C63.2871 13.8753 63.462 13.8173 63.6175 13.7787C63.8119 13.7787 63.9674 13.7787 64.084 13.7787C64.2007 13.7401 64.3561 13.6821 64.5505 13.6049C64.8226 13.2959 64.9004 12.8903 64.7838 12.3881C64.6671 11.8473 64.6477 11.3838 64.7255 10.9975C64.57 10.6112 64.5311 10.2056 64.6088 9.78069C64.7255 9.35578 64.7838 8.95018 64.7838 8.5639C64.7449 8.44801 64.6866 8.31281 64.6088 8.1583C64.57 8.00379 64.5894 7.8879 64.6671 7.81064C64.5505 7.69476 64.4339 7.57887 64.3173 7.46299C64.2395 7.3471 64.1423 7.25053 64.0257 7.17328C63.7536 6.67111 63.5009 6.16894 63.2677 5.66677C63.0733 5.12598 63.0927 4.58518 63.326 4.04438C63.2871 3.58084 63.3454 3.29113 63.5009 3.17525C63.6953 3.02073 63.8313 2.84691 63.9091 2.65376H64.084Z" fill="#FA4A0C"/>
<path d="M110.616 42.4602C110.539 42.7306 110.364 42.9045 110.092 42.9817C109.858 43.0203 109.683 43.1362 109.567 43.3294C109.295 43.4839 109.023 43.5611 108.75 43.5611C108.478 43.5611 108.187 43.5805 107.876 43.6191C107.526 43.5418 107.312 43.4453 107.234 43.3294C106.884 43.368 106.593 43.2907 106.36 43.0976C106.165 42.8658 105.932 42.692 105.66 42.5761C105.582 42.4602 105.504 42.325 105.427 42.1705C105.349 42.016 105.213 41.9581 105.019 41.9967C105.057 41.8036 104.999 41.649 104.844 41.5332C104.688 41.4173 104.571 41.2821 104.494 41.1276C104.299 41.0889 104.144 41.0117 104.027 40.8958C103.911 40.7413 103.755 40.664 103.561 40.664C103.327 40.664 103.133 40.7799 102.978 41.0117C102.822 41.2434 102.628 41.398 102.395 41.4752C102.317 41.5525 102.22 41.6297 102.103 41.707C102.025 41.7842 101.967 41.8808 101.928 41.9967C101.734 41.9967 101.559 42.0546 101.403 42.1705C101.248 42.2478 101.092 42.3444 100.937 42.4602C100.276 42.3444 99.6927 42.4216 99.1874 42.692C98.7209 42.9238 98.1767 43.0203 97.5547 42.9817C97.0882 43.059 96.7578 43.1169 96.5634 43.1555C96.4079 43.1942 96.2329 43.2135 96.0386 43.2135C95.611 43.2521 95.2611 43.1942 94.989 43.0397C94.7169 43.1169 94.4642 43.1169 94.2309 43.0397C93.9977 42.9238 93.745 42.9045 93.4729 42.9817C93.2785 42.8658 93.1036 42.8658 92.9481 42.9817C92.7926 43.059 92.5982 43.0783 92.365 43.0397C91.8985 42.8079 91.5875 42.692 91.432 42.692C91.3154 42.692 91.1793 42.6534 91.0238 42.5761C90.9461 42.4989 90.8489 42.4023 90.7323 42.2864C90.6156 42.1705 90.4407 42.1126 90.2075 42.1126C89.7798 41.8422 89.5272 41.6104 89.4494 41.4173C89.4105 41.2241 89.3522 41.0503 89.2745 40.8958C89.0801 40.5481 88.9829 40.3164 88.9829 40.2005C89.0218 40.046 89.0218 39.8915 88.9829 39.7369C88.8274 39.5438 88.6525 39.37 88.4581 39.2155C88.3026 39.0609 88.1666 38.8871 88.0499 38.694C87.9722 38.4236 87.9139 38.2111 87.875 38.0566C87.875 37.9021 87.8556 37.7283 87.8167 37.5351C87.7389 37.1875 87.6612 36.8012 87.5835 36.3763C87.5446 35.9127 87.5251 35.5071 87.5251 35.1595C87.564 34.8118 87.564 34.5801 87.5251 34.4642C87.4863 34.3483 87.5057 34.2517 87.5835 34.1745C87.5835 33.3246 87.7195 32.5714 87.9916 31.9147C88.0305 31.6443 88.0499 31.3739 88.0499 31.1035C88.0888 30.8331 88.2054 30.64 88.3998 30.5241C88.5164 30.0219 88.6525 29.6743 88.808 29.4811C88.9635 29.2494 89.0995 28.979 89.2162 28.6699C89.4883 28.3995 89.6243 28.2643 89.6243 28.2643C89.6632 28.2257 89.6827 28.1871 89.6827 28.1484C89.877 28.0326 89.9937 27.936 90.0325 27.8587C90.1103 27.7429 90.2075 27.7042 90.3241 27.7429C90.6351 27.3179 90.9655 26.9896 91.3154 26.7578C91.7041 26.4874 92.1123 26.2363 92.5399 26.0046C93.3951 25.6569 94.1921 25.4252 94.9307 25.3093C95.6693 25.1548 96.3301 25.1161 96.9132 25.1934C97.0687 25.0389 97.3603 24.9616 97.7879 24.9616C98.2155 24.923 98.546 24.9809 98.7792 25.1354C98.9347 25.29 99.0513 25.3672 99.1291 25.3672C99.2457 25.3286 99.3429 25.3286 99.4206 25.3672C99.5373 25.4058 99.6539 25.4831 99.7705 25.599C99.926 25.6762 100.101 25.7342 100.295 25.7728C100.762 25.8501 101.014 25.908 101.053 25.9466C101.092 25.9853 101.151 26.0239 101.228 26.0625C101.617 26.1784 102.025 26.217 102.453 26.1784C102.88 26.1398 103.191 25.9659 103.386 25.6569C103.464 25.5797 103.541 25.4252 103.619 25.1934C103.697 24.9616 103.755 24.7878 103.794 24.6719C103.833 24.556 103.833 24.4208 103.794 24.2663C103.755 24.0732 103.716 23.9186 103.677 23.8028C103.6 23.262 103.561 22.6439 103.561 21.9486C103.561 21.2147 103.541 20.5966 103.502 20.0944C103.425 19.2446 103.289 18.3755 103.094 17.487C103.016 17.2166 102.939 16.9656 102.861 16.7338C102.783 16.502 102.647 16.3089 102.453 16.1544C102.258 15.4977 102.006 14.9376 101.695 14.474C101.384 14.0105 101.014 13.6049 100.587 13.2572C100.276 13.2572 100.043 13.1993 99.8871 13.0834C99.7705 12.9289 99.5956 12.8323 99.3623 12.7937C98.8181 12.6392 98.3516 12.6199 97.9629 12.7358C97.613 12.813 97.2826 12.8323 96.9716 12.7937C96.7772 12.7551 96.6023 12.7551 96.4468 12.7937C96.3301 12.8323 96.1746 12.871 95.9803 12.9096C95.6304 12.8323 95.3388 12.8516 95.1056 12.9675C94.9112 13.0448 94.7169 13.122 94.5225 13.1993C94.2115 13.3538 93.9782 13.489 93.8228 13.6049C93.5506 13.7208 93.298 13.8367 93.0647 13.9525C92.8315 14.0298 92.6177 14.165 92.4233 14.3581C92.3067 14.474 92.1512 14.5899 91.9568 14.7058C91.8013 14.8217 91.6458 14.9762 91.4903 15.1693C91.3737 15.2852 91.2376 15.4397 91.0821 15.6329C90.9655 15.826 90.8489 16.0192 90.7323 16.2123C90.4213 16.7531 90.2658 17.0814 90.2658 17.1973C90.2658 17.3132 90.3046 17.5257 90.3824 17.8347C90.4601 17.9119 90.5184 18.0085 90.5573 18.1244C90.6351 18.2017 90.6934 18.2982 90.7323 18.4141C90.9655 18.8777 91.121 19.1287 91.1987 19.1674C91.2765 19.1674 91.3348 19.206 91.3737 19.2833C91.5292 19.206 91.6458 19.206 91.7235 19.2833C91.8402 19.3219 91.9762 19.3412 92.1317 19.3412C92.3261 19.3026 92.5205 19.2446 92.7148 19.1674C92.9481 19.0515 93.1813 18.9935 93.4146 18.9935C93.4534 18.6845 93.4534 18.3948 93.4146 18.1244C93.3757 17.8154 93.3951 17.545 93.4729 17.3132C93.745 16.7724 94.0366 16.3861 94.3476 16.1544C94.6974 15.7681 95.1445 15.517 95.6887 15.4011C95.8442 15.3238 95.9803 15.2466 96.0969 15.1693C96.2524 15.0535 96.4273 14.9955 96.6217 14.9955C97.0104 15.2273 97.2631 15.3432 97.3797 15.3432C97.5352 15.3045 97.6713 15.3238 97.7879 15.4011C98.2544 15.4397 98.6237 15.5363 98.8958 15.6908C99.2068 15.8067 99.4595 16.0578 99.6539 16.4441C99.7316 16.6372 99.7705 16.8497 99.7705 17.0814C99.8094 17.2746 99.926 17.4484 100.12 17.6029C100.198 17.7574 100.218 17.9119 100.179 18.0665C100.14 18.1823 100.159 18.3369 100.237 18.53C100.237 18.7231 100.276 18.9163 100.354 19.1094C100.431 19.2639 100.431 19.4378 100.354 19.6309C100.237 19.824 100.101 20.0558 99.9454 20.3262C99.8288 20.558 99.7122 20.7125 99.5956 20.7898C99.5567 21.0215 99.4595 21.2147 99.304 21.3692C99.1485 21.5237 98.993 21.6782 98.8375 21.8327C98.7598 21.9486 98.682 22.0645 98.6043 22.1804C98.5265 22.2963 98.3905 22.3928 98.1961 22.4701C97.6519 22.7019 97.302 22.8371 97.1465 22.8757C96.991 22.9143 96.8549 22.9723 96.7383 23.0495C96.3107 23.3199 95.9997 23.4551 95.8053 23.4551C95.6498 23.4551 95.4749 23.4937 95.2805 23.571C94.814 23.7255 94.5225 23.7834 94.4059 23.7448C94.2892 23.7062 94.1921 23.7062 94.1143 23.7448C93.9199 23.7448 93.7061 23.7834 93.4729 23.8607C93.2396 23.938 93.0064 23.9573 92.7731 23.9186C92.3844 23.8414 92.1706 23.8221 92.1317 23.8607C92.0928 23.8607 92.054 23.8607 92.0151 23.8607C91.6264 23.7834 91.3348 23.6096 91.1404 23.3392C90.9461 23.0302 90.5962 22.8757 90.0908 22.8757C89.6632 22.6053 89.3134 22.4315 89.0412 22.3542C88.7691 22.2383 88.5747 22.0452 88.4581 21.7748C87.9528 21.4271 87.6223 21.176 87.4668 21.0215C87.3502 20.867 87.2141 20.7318 87.0587 20.6159C86.9032 20.2296 86.7282 19.8627 86.5339 19.515C86.3395 19.1674 86.2229 18.7811 86.184 18.3562C86.1451 18.0858 86.1257 17.7767 86.1257 17.4291C86.1257 17.0428 86.1451 16.6952 86.184 16.3861C86.2617 15.884 86.3589 15.5363 86.4755 15.3432C86.631 15.15 86.7477 14.9183 86.8254 14.6479C86.9032 14.532 86.942 14.4161 86.942 14.3002C86.942 14.1457 86.9809 14.0105 87.0587 13.8946C87.253 13.5469 87.4474 13.3152 87.6418 13.1993C87.9916 12.5426 88.3026 12.1177 88.5747 11.9246C88.8469 11.7314 89.1384 11.5576 89.4494 11.4031C90.0714 11.1327 90.5573 10.9202 90.9072 10.7657C91.2959 10.5726 91.7235 10.4567 92.19 10.4181C92.5788 10.3794 92.9481 10.3408 93.298 10.3022C93.6478 10.2249 93.9782 10.0897 94.2892 9.89657C94.8724 9.81932 95.3972 9.78069 95.8636 9.78069C96.369 9.78069 96.8549 9.74206 97.3214 9.6648C97.4769 9.70343 97.6324 9.70343 97.7879 9.6648C97.9434 9.58755 98.0989 9.54892 98.2544 9.54892C98.682 9.62617 99.0319 9.6648 99.304 9.6648C99.615 9.62617 99.9454 9.62617 100.295 9.6648C100.412 9.70343 100.529 9.74206 100.645 9.78069C100.801 9.81932 100.937 9.85794 101.053 9.89657C101.403 9.97383 101.753 10.0704 102.103 10.1863C102.492 10.2635 102.822 10.3987 103.094 10.5919C104.299 10.8237 105.135 11.4224 105.602 12.3881C105.679 12.7358 105.757 12.9868 105.835 13.1413C105.913 13.2572 105.971 13.4117 106.01 13.6049C106.126 13.798 106.243 13.9912 106.36 14.1843C106.515 14.3388 106.671 14.5127 106.826 14.7058C107.059 15.1307 107.234 15.517 107.351 15.8646C107.468 16.2123 107.623 16.56 107.817 16.9076C107.895 17.0621 107.954 17.2166 107.992 17.3711C108.07 17.487 108.148 17.6415 108.226 17.8347C108.381 18.1823 108.439 18.3755 108.401 18.4141C108.401 18.4527 108.401 18.4914 108.401 18.53C108.439 18.7231 108.498 18.9163 108.575 19.1094C108.692 19.2639 108.77 19.4378 108.809 19.6309C108.731 19.9013 108.731 20.1717 108.809 20.4421C108.925 20.7125 108.945 20.9443 108.867 21.1374C109.023 21.4464 109.1 21.7941 109.1 22.1804C109.1 22.528 109.12 22.9143 109.159 23.3392C109.236 23.4551 109.256 23.571 109.217 23.6869C109.178 23.8028 109.159 23.9186 109.159 24.0345C109.159 24.2277 109.178 24.4208 109.217 24.614C109.295 24.8071 109.314 25.0002 109.275 25.1934C109.236 25.4638 109.236 25.6569 109.275 25.7728C109.314 25.8501 109.334 25.9466 109.334 26.0625C109.295 26.217 109.275 26.3909 109.275 26.584C109.314 26.7385 109.314 26.9123 109.275 27.1055C109.236 27.3373 109.197 27.569 109.159 27.8008C109.12 27.9939 109.081 28.1871 109.042 28.3802C109.003 28.5347 108.964 28.6699 108.925 28.7858C108.886 28.9017 108.886 29.0369 108.925 29.1914C109.003 29.6936 108.964 30.1185 108.809 30.4661C108.731 30.9683 108.653 31.4898 108.575 32.0306C108.537 32.5328 108.478 33.0349 108.401 33.5371C108.478 33.8848 108.498 34.2131 108.459 34.5221C108.459 34.7925 108.439 35.1402 108.401 35.5651C108.439 36.0286 108.478 36.4535 108.517 36.8398C108.595 37.2261 108.731 37.5544 108.925 37.8248C109.547 37.9407 109.975 38.0373 110.208 38.1146C110.441 38.1918 110.597 38.327 110.675 38.5201C110.83 38.8292 110.986 39.0996 111.141 39.3313C111.297 39.5245 111.413 39.7563 111.491 40.0267C111.569 40.2198 111.588 40.355 111.549 40.4323C111.51 40.5095 111.472 40.6447 111.433 40.8378C111.355 40.9924 111.336 41.1276 111.374 41.2434C111.413 41.3207 111.394 41.4559 111.316 41.649C111.161 41.7649 111.063 41.9001 111.025 42.0546C111.025 42.1705 110.986 42.2671 110.908 42.3444L110.616 42.4602ZM93.5312 31.5091C93.3368 32.1272 93.2008 32.5134 93.123 32.668C93.1619 33.1315 93.1619 33.4792 93.123 33.7109C93.0841 33.9427 93.0453 34.1552 93.0064 34.3483C92.8509 34.8505 92.8315 35.2754 92.9481 35.623C92.987 35.8162 93.0453 36.0479 93.123 36.3183C93.2008 36.5887 93.2785 36.7626 93.3563 36.8398C93.434 37.3806 93.6478 37.7669 93.9977 37.9987C94.3476 38.1918 94.678 38.385 94.989 38.5781C95.7665 38.694 96.3301 38.6553 96.68 38.4622C97.0687 38.2304 97.4769 38.1339 97.9045 38.1725C98.1767 37.9021 98.5265 37.7669 98.9541 37.7669C99.3818 37.4579 99.615 37.3034 99.6539 37.3034C99.6927 37.2647 99.7511 37.2261 99.8288 37.1875C100.14 37.033 100.354 36.9364 100.47 36.8978C100.626 36.8205 100.801 36.7432 100.995 36.666C101.189 36.5887 101.403 36.4535 101.636 36.2604C101.909 36.0673 102.084 35.8934 102.161 35.7389C102.433 35.314 102.569 34.7925 102.569 34.1745C102.569 33.9813 102.589 33.8268 102.628 33.7109C102.705 33.595 102.744 33.4405 102.744 33.2474C102.589 32.9384 102.511 32.7066 102.511 32.5521C102.55 32.243 102.55 32.0499 102.511 31.9727C102.472 31.8954 102.433 31.8181 102.395 31.7409C102.278 31.3932 102.181 31.1421 102.103 30.9876C102.025 30.8331 101.986 30.64 101.986 30.4082C101.675 29.9447 101.423 29.6936 101.228 29.655C101.073 29.5777 100.898 29.5004 100.703 29.4232C100.354 29.5391 100.004 29.5198 99.6539 29.3652C99.3429 29.2107 99.0513 29.2107 98.7792 29.3652C98.0017 29.3652 97.302 29.5391 96.68 29.8867C96.058 30.1957 95.4166 30.4468 94.7557 30.64C94.5614 30.6786 94.3864 30.7172 94.2309 30.7559C94.1143 30.7945 93.9782 30.8524 93.8228 30.9297C93.8228 31.0842 93.7839 31.2001 93.7061 31.2773C93.6284 31.3546 93.5701 31.4319 93.5312 31.5091ZM110.208 11.7507C110.597 11.8666 110.869 12.0018 111.025 12.1563C111.219 12.2722 111.394 12.4654 111.549 12.7358C111.705 13.0062 111.783 13.2959 111.783 13.6049C111.821 13.9139 111.744 14.165 111.549 14.3581C111.355 14.4354 111.238 14.5127 111.199 14.5899C111.161 14.6285 111.102 14.6865 111.025 14.7637C110.714 15.0728 110.383 15.15 110.033 14.9955C109.683 14.8024 109.334 14.6479 108.984 14.532C108.789 14.3002 108.634 14.0298 108.517 13.7208C108.401 13.4117 108.342 13.0834 108.342 12.7358C108.498 12.5426 108.634 12.3688 108.75 12.2143C108.906 12.0211 109.139 11.9439 109.45 11.9825C109.567 11.9052 109.819 11.828 110.208 11.7507ZM88.3998 24.2663C88.4387 24.5367 88.5164 24.7685 88.6331 24.9616C88.7886 25.1548 88.8274 25.4058 88.7497 25.7149C88.3221 26.1784 87.9333 26.4102 87.5835 26.4102C87.0003 26.1398 86.5922 25.8501 86.3589 25.541C86.1645 25.1934 86.1645 24.7878 86.3589 24.3242C86.4755 24.2084 86.6505 24.0732 86.8837 23.9186C87.1947 23.8028 87.4668 23.8221 87.7001 23.9766C87.9722 24.0925 88.2054 24.189 88.3998 24.2663ZM111.083 31.5091C111.238 31.4705 111.336 31.4319 111.374 31.3932C111.452 31.316 111.569 31.316 111.724 31.3932C111.919 31.4705 112.035 31.6443 112.074 31.9147C112.152 32.1851 112.152 32.4362 112.074 32.668C111.958 32.7452 111.841 32.8032 111.724 32.8418C111.647 32.8804 111.549 32.8997 111.433 32.8997C111.161 32.8225 111.005 32.6293 110.966 32.3203C110.927 32.0113 110.966 31.7409 111.083 31.5091ZM110.675 36.8398C110.364 36.5694 110.228 36.2797 110.267 35.9707C110.344 35.6617 110.383 35.3526 110.383 35.0436C110.539 34.7732 110.675 34.638 110.791 34.638C110.947 34.5994 111.083 34.5414 111.199 34.4642C111.549 34.4642 111.86 34.5028 112.132 34.5801C112.405 34.6187 112.56 34.7732 112.599 35.0436C112.793 35.3526 112.832 35.6037 112.716 35.7969C112.638 35.9514 112.58 36.1252 112.541 36.3183C112.346 36.5115 112.055 36.6853 111.666 36.8398C111.316 36.9943 111.025 37.0716 110.791 37.0716L110.675 36.8398ZM86.942 41.9388C87.3308 41.8615 87.6612 41.9001 87.9333 42.0546C88.2443 42.2092 88.3609 42.4796 88.2832 42.8658C88.2832 43.1749 88.186 43.368 87.9916 43.4453C87.8361 43.5225 87.6612 43.6384 87.4668 43.7929C87.0392 43.7157 86.7671 43.4646 86.6505 43.0397C86.5339 42.5761 86.631 42.2092 86.942 41.9388Z" fill="#FA4A0C"/>
<path d="M129.393 45.6471C129.198 45.4539 128.965 45.3187 128.693 45.2415C128.421 45.1642 128.246 44.9711 128.168 44.6621C127.857 44.5075 127.566 44.2758 127.293 43.9667C127.021 43.6577 126.652 43.4646 126.185 43.3873C125.952 43.3487 125.758 43.2714 125.602 43.1555C125.486 43.001 125.33 42.9238 125.136 42.9238C124.903 42.7306 124.708 42.5761 124.553 42.4602C124.436 42.3057 124.222 42.2092 123.911 42.1705C123.717 42.0933 123.484 41.9967 123.212 41.8808C122.939 41.7263 122.667 41.707 122.395 41.8229C122.356 42.0933 122.298 42.325 122.22 42.5182C122.181 42.7113 122.143 42.9431 122.104 43.2135C122.143 43.4066 122.24 43.5805 122.395 43.735C122.551 43.8509 122.609 44.0054 122.57 44.1985C122.765 44.3917 122.823 44.5848 122.745 44.7779C122.706 44.9711 122.687 45.1835 122.687 45.4153C122.492 45.5312 122.395 45.7436 122.395 46.0527C122.24 46.2458 122.084 46.4196 121.929 46.5742C121.773 46.7287 121.657 46.9218 121.579 47.1536C121.385 47.2308 121.229 47.3274 121.112 47.4433C121.035 47.5592 120.899 47.6364 120.704 47.6751C120.432 47.7523 120.16 47.733 119.888 47.6171C119.655 47.5012 119.402 47.3853 119.13 47.2695C118.935 47.0377 118.722 46.8639 118.488 46.748C118.255 46.6321 118.08 46.4583 117.964 46.2265C117.769 45.9947 117.633 45.8402 117.555 45.763C117.517 45.6857 117.497 45.5891 117.497 45.4732C117.186 45.4346 116.953 45.3187 116.797 45.1256C116.681 44.9324 116.506 44.7779 116.273 44.6621C115.923 43.9667 115.864 43.2135 116.098 42.4023C116.331 41.5911 116.7 40.9537 117.206 40.4902C117.167 40.2584 117.128 40.0267 117.089 39.7949C117.089 39.5245 117.108 39.2927 117.147 39.0996C117.186 38.9451 117.225 38.8099 117.264 38.694C117.303 38.5781 117.322 38.4622 117.322 38.3463C117.283 37.9214 117.264 37.651 117.264 37.5351C117.303 37.4192 117.322 37.3034 117.322 37.1875C117.322 36.9171 117.264 36.6467 117.147 36.3763C117.069 36.1059 117.05 35.8162 117.089 35.5071C117.128 35.314 117.147 35.1402 117.147 34.9857C117.147 34.7925 117.108 34.6573 117.031 34.5801C117.147 33.8075 117.167 33.0542 117.089 32.3203C117.011 31.5477 117.128 30.8911 117.439 30.3503C117.517 29.6936 117.517 29.0369 117.439 28.3802C117.4 27.7235 117.458 27.1248 117.614 26.584C117.536 26.3522 117.517 26.1011 117.555 25.8307C117.594 25.5217 117.575 25.2706 117.497 25.0775C117.536 24.8457 117.555 24.6333 117.555 24.4401C117.594 24.2084 117.711 24.0538 117.905 23.9766C117.983 23.8221 117.964 23.6676 117.847 23.5131C117.769 23.3585 117.73 23.1847 117.73 22.9916C117.73 22.7212 117.769 22.4701 117.847 22.2383C117.925 22.0065 117.925 21.7555 117.847 21.4851C117.964 21.0602 118.08 20.7318 118.197 20.5C118.313 20.2683 118.411 19.9979 118.488 19.6888C118.294 19.6116 118.197 19.4764 118.197 19.2833C118.197 19.0515 118.119 18.897 117.964 18.8197C118.002 18.6266 117.983 18.4334 117.905 18.2403C117.828 18.0085 117.789 17.7574 117.789 17.487C117.789 17.2939 117.808 17.1008 117.847 16.9076C117.886 16.7145 117.925 16.502 117.964 16.2702C117.886 16.0771 117.886 15.884 117.964 15.6908C118.041 15.4977 118.002 15.3238 117.847 15.1693C117.847 14.6285 117.828 14.1264 117.789 13.6628C117.789 13.1993 117.808 12.6971 117.847 12.1563C117.808 11.8859 117.789 11.6542 117.789 11.461C117.789 11.2292 117.75 11.0168 117.672 10.8237C117.75 10.5146 117.73 10.2249 117.614 9.95451C117.497 9.64549 117.4 9.37509 117.322 9.14332C116.856 8.95018 116.603 8.5639 116.564 7.98447C116.525 7.36642 116.467 6.80631 116.389 6.30414C116.428 6.07237 116.428 5.76334 116.389 5.37706C116.35 4.99078 116.37 4.64312 116.448 4.3341C116.525 4.17958 116.622 4.02507 116.739 3.87056C116.895 3.71604 116.992 3.54222 117.031 3.34907C117.303 3.19456 117.575 3.07868 117.847 3.00142C118.158 2.88553 118.411 2.71171 118.605 2.47994C118.838 2.44131 119.033 2.38337 119.188 2.30611C119.344 2.19023 119.538 2.09365 119.771 2.0164C120.082 1.70737 120.354 1.59149 120.588 1.66874C120.86 1.746 121.132 1.82326 121.404 1.90051C121.676 1.97777 121.929 2.03571 122.162 2.07434C122.434 2.11297 122.667 2.17091 122.862 2.24817C123.367 2.36405 123.756 2.53788 124.028 2.76965C124.339 3.00142 124.631 3.23319 124.903 3.46496C125.175 4.12164 125.33 4.58518 125.369 4.85558C125.447 5.08735 125.486 5.41569 125.486 5.8406C125.525 6.111 125.563 6.36208 125.602 6.59385C125.641 6.78699 125.641 7.01876 125.602 7.28916C125.486 7.67544 125.427 7.92653 125.427 8.04241C125.466 8.1583 125.466 8.25487 125.427 8.33213C125.389 8.40938 125.33 8.50595 125.253 8.62184C125.175 8.73772 125.136 8.89224 125.136 9.08538C125.058 9.89657 124.767 10.6691 124.261 11.4031C124.028 11.9825 123.853 12.4074 123.736 12.6778C123.62 12.9096 123.503 13.1993 123.387 13.5469C123.464 13.856 123.484 14.165 123.445 14.474C123.406 14.7831 123.348 15.0921 123.27 15.4011C123.231 15.7874 123.192 15.9998 123.153 16.0385C123.153 16.0771 123.153 16.1157 123.153 16.1544C123.192 16.2702 123.231 16.3861 123.27 16.502C123.309 16.5793 123.309 16.6758 123.27 16.7917C123.231 16.9076 123.173 17.0235 123.095 17.1394C123.017 17.2553 122.978 17.3711 122.978 17.487C122.939 17.6029 122.939 17.7767 122.978 18.0085C123.017 18.2017 122.978 18.3369 122.862 18.4141C122.784 18.9549 122.745 19.4764 122.745 19.9786C122.745 20.4421 122.687 20.867 122.57 21.2533C122.57 21.7555 122.531 22.2383 122.454 22.7019C122.415 23.1654 122.531 23.5517 122.803 23.8607C123.114 23.8221 123.289 23.7834 123.328 23.7448C123.406 23.7062 123.484 23.6869 123.561 23.6869C123.95 23.3006 124.358 22.9529 124.786 22.6439C124.98 22.1804 125.272 21.8907 125.661 21.7748C126.011 21.5044 126.341 21.2919 126.652 21.1374C127.002 20.9443 127.332 20.7511 127.643 20.558C128.11 20.4421 128.498 20.2683 128.809 20.0365C129.159 19.7661 129.568 19.5536 130.034 19.3991C130.345 19.3991 130.617 19.3412 130.85 19.2253C131.2 19.1481 131.511 19.1094 131.783 19.1094C132.055 19.1094 132.328 19.1481 132.6 19.2253C132.872 19.2639 133.105 19.3219 133.299 19.3991C133.533 19.4378 133.747 19.4378 133.941 19.3991C134.019 19.4764 134.135 19.5343 134.291 19.573C134.446 19.573 134.524 19.6502 134.524 19.8047C134.757 19.9592 134.913 20.0751 134.99 20.1524C135.068 20.191 135.146 20.2683 135.224 20.3842C135.574 20.5 135.807 20.7511 135.923 21.1374C136.04 21.5237 136.273 21.8134 136.623 22.0065C136.973 22.3928 137.245 22.7019 137.44 22.9336C137.634 23.1654 137.77 23.4551 137.848 23.8028C138.198 23.9186 138.431 24.1697 138.547 24.556C138.742 24.5946 138.878 24.7685 138.956 25.0775C139.189 25.1548 139.344 25.29 139.422 25.4831C139.539 25.6376 139.694 25.7535 139.889 25.8307C139.966 26.1398 140.044 26.4295 140.122 26.6999C140.238 26.9703 140.336 27.2793 140.413 27.627C140.686 28.0133 140.88 28.4768 140.997 29.0176C141.269 29.7129 141.482 30.3889 141.638 31.0456C141.832 31.7023 141.949 32.3783 141.988 33.0736C142.027 33.3826 142.066 33.6916 142.104 34.0006C142.182 34.271 142.26 34.5801 142.338 34.9277C142.299 35.2754 142.279 35.623 142.279 35.9707C142.318 36.3183 142.299 36.666 142.221 37.0136C142.26 37.2068 142.26 37.3806 142.221 37.5351C142.182 37.6896 142.163 37.8635 142.163 38.0566C141.891 38.4043 141.696 38.7905 141.58 39.2155C141.463 39.6404 141.249 40.0073 140.938 40.3164C140.355 40.7799 139.986 41.2241 139.83 41.649C139.636 41.8036 139.48 41.9967 139.364 42.2285C139.247 42.4602 139.092 42.6534 138.897 42.8079C138.858 43.0783 138.761 43.2714 138.606 43.3873C138.45 43.5032 138.353 43.6577 138.314 43.8509C137.731 44.2371 137.381 44.5848 137.265 44.8938C137.148 45.1642 136.915 45.2994 136.565 45.2994C136.37 45.3767 136.176 45.4732 135.982 45.5891C135.826 45.705 135.651 45.8209 135.457 45.9368C135.263 46.1299 135.029 46.2265 134.757 46.2265C134.524 46.2265 134.291 46.3231 134.057 46.5162C133.591 46.5162 133.338 46.5355 133.299 46.5742C133.299 46.6128 133.261 46.6321 133.183 46.6321C132.794 46.5162 132.561 46.439 132.483 46.4003C132.444 46.4003 132.386 46.439 132.308 46.5162C131.842 46.3231 131.356 46.2072 130.85 46.1686C130.384 46.1299 129.976 45.9561 129.626 45.6471H129.393ZM132.716 24.4401C132.444 24.5174 132.211 24.556 132.017 24.556C131.861 24.5174 131.667 24.5367 131.433 24.614C131.278 24.6526 131.084 24.7298 130.85 24.8457C130.617 24.9616 130.384 25.0389 130.151 25.0775C129.762 25.1548 129.509 25.2513 129.393 25.3672C129.043 25.4831 128.732 25.6376 128.46 25.8307C128.188 25.9853 127.896 26.1398 127.585 26.2943C127.391 26.5647 127.157 26.8351 126.885 27.1055C126.652 27.3373 126.458 27.627 126.302 27.9746C126.108 28.245 125.952 28.3995 125.836 28.4382C125.641 28.5154 125.486 28.6313 125.369 28.7858C125.291 28.9403 125.194 29.0948 125.078 29.2494C124.922 29.4039 124.805 29.597 124.728 29.8288C124.689 30.0606 124.572 30.2151 124.378 30.2923C124.3 30.6013 124.164 30.9104 123.97 31.2194C123.775 31.5284 123.717 31.8954 123.795 32.3203C123.95 32.7066 124.028 32.977 124.028 33.1315C124.028 33.2474 124.047 33.3826 124.086 33.5371C124.164 34.3097 124.3 34.9857 124.494 35.5651C124.844 35.99 125.194 36.4149 125.544 36.8398C125.933 37.2647 126.341 37.6896 126.769 38.1146C126.963 38.1918 127.138 38.2498 127.293 38.2884C127.449 38.2884 127.566 38.2498 127.643 38.1725C127.838 38.2498 128.051 38.2884 128.285 38.2884C128.557 38.2884 128.809 38.327 129.043 38.4043C129.198 38.4815 129.393 38.5781 129.626 38.694C129.859 38.7712 130.073 38.8485 130.267 38.9257C130.695 39.1575 130.967 39.2734 131.084 39.2734C131.239 39.2348 131.356 39.2348 131.433 39.2734C131.744 39.3507 131.978 39.4279 132.133 39.5052C132.289 39.5438 132.503 39.5631 132.775 39.5631C132.969 39.5631 133.183 39.5824 133.416 39.6211C133.649 39.6597 133.844 39.6597 133.999 39.6211C134.349 39.5438 134.602 39.4472 134.757 39.3313C134.952 39.1768 135.127 39.003 135.282 38.8099C135.515 38.7326 135.71 38.636 135.865 38.5201C136.021 38.4043 136.196 38.3077 136.39 38.2304C136.584 37.8055 136.837 37.4772 137.148 37.2454C137.342 36.8978 137.498 36.5308 137.614 36.1445C137.731 35.7196 137.887 35.314 138.081 34.9277C138.081 34.7346 138.081 34.5221 138.081 34.2904C138.12 34.0586 138.178 33.8848 138.256 33.7689C138.178 33.653 138.139 33.5371 138.139 33.4212C138.178 33.2667 138.159 33.1508 138.081 33.0736C138.12 32.7645 138.12 32.4362 138.081 32.0885C138.042 31.7023 138.003 31.3353 137.964 30.9876C137.925 30.8331 137.925 30.6979 137.964 30.582C138.003 30.4275 138.003 30.2923 137.964 30.1764C137.964 29.9833 137.945 29.8481 137.906 29.7708C137.867 29.655 137.828 29.5391 137.789 29.4232C137.712 29.23 137.634 29.0562 137.556 28.9017C137.517 28.7472 137.459 28.5927 137.381 28.4382C137.303 28.2836 137.226 28.1484 137.148 28.0326C137.07 27.9167 137.031 27.7815 137.031 27.627C136.72 27.2407 136.468 26.893 136.273 26.584C136.079 26.275 135.865 26.0239 135.632 25.8307C135.476 25.7149 135.321 25.6183 135.165 25.541C135.01 25.4638 134.893 25.3286 134.816 25.1354C134.621 25.1354 134.466 25.0968 134.349 25.0196C134.232 24.9423 134.135 24.865 134.057 24.7878C133.785 24.9037 133.533 24.865 133.299 24.6719C133.105 24.4401 132.911 24.3629 132.716 24.4401ZM130.792 15.9226C130.909 16.193 130.889 16.4827 130.734 16.7917C130.617 17.1008 130.442 17.2746 130.209 17.3132C130.015 17.4291 129.801 17.487 129.568 17.487C129.451 17.3325 129.334 17.1008 129.218 16.7917C129.023 16.4827 128.926 16.2702 128.926 16.1544C129.004 16.0385 129.12 15.9805 129.276 15.9805C129.47 15.9419 129.684 15.884 129.917 15.8067C130.228 15.7681 130.52 15.8067 130.792 15.9226ZM127.527 18.7618C127.332 18.7618 127.157 18.8197 127.002 18.9356C126.885 19.0515 126.73 19.1094 126.535 19.1094C126.458 19.1867 126.36 19.2833 126.244 19.3991C126.166 19.515 126.03 19.5343 125.836 19.4571C125.602 19.2639 125.486 19.1094 125.486 18.9935C125.486 18.839 125.486 18.7038 125.486 18.5879C125.408 18.5107 125.369 18.3948 125.369 18.2403C125.369 18.0858 125.311 17.9506 125.194 17.8347C125.078 17.4484 125.097 17.1201 125.253 16.8497C125.447 16.5793 125.661 16.4634 125.894 16.502C126.205 16.3475 126.399 16.2702 126.477 16.2702C126.594 16.2702 126.749 16.2316 126.944 16.1544C127.06 16.2316 127.177 16.3089 127.293 16.3861C127.449 16.4248 127.585 16.4827 127.702 16.56C127.779 16.7531 127.857 16.9269 127.935 17.0814C128.051 17.236 128.09 17.4291 128.051 17.6609C128.013 17.854 127.935 18.0085 127.818 18.1244C127.702 18.2403 127.604 18.3562 127.527 18.4721V18.7618ZM131.142 27.9167C131.064 28.1098 131.006 28.3609 130.967 28.6699C130.928 28.979 130.753 29.0948 130.442 29.0176C130.248 28.979 130.112 28.921 130.034 28.8438C129.956 28.7279 129.879 28.5927 129.801 28.4382C129.879 28.1291 130.053 27.936 130.326 27.8587C130.598 27.7429 130.87 27.7622 131.142 27.9167ZM129.101 30.0026C129.179 30.3116 129.14 30.6013 128.984 30.8717C128.829 31.1421 128.654 31.3739 128.46 31.5671C128.498 31.7602 128.479 31.8954 128.401 31.9727C128.362 32.0113 128.343 32.1078 128.343 32.2624C128.149 32.6873 128.032 32.8997 127.993 32.8997C127.954 32.8997 127.915 32.9384 127.877 33.0156C127.721 33.1315 127.546 33.3246 127.352 33.595C127.157 33.8268 126.885 33.9041 126.535 33.8268C126.419 33.7882 126.322 33.7109 126.244 33.595C126.166 33.4405 126.088 33.3246 126.011 33.2474C126.011 32.668 126.049 32.1465 126.127 31.6829C126.244 31.1808 126.458 30.7752 126.769 30.4661C126.846 30.2344 126.905 30.0799 126.944 30.0026C127.021 29.9254 127.099 29.8481 127.177 29.7708C127.371 29.8481 127.488 29.8288 127.527 29.7129C127.604 29.597 127.702 29.5198 127.818 29.4811C128.09 29.4039 128.324 29.4232 128.518 29.5391C128.712 29.655 128.907 29.8095 129.101 30.0026ZM113.998 44.9518C114.193 44.9131 114.387 44.9711 114.582 45.1256C114.776 45.2415 114.951 45.3574 115.106 45.4732C115.34 45.8982 115.34 46.2844 115.106 46.6321C115.029 46.7094 114.912 46.8059 114.756 46.9218C114.64 47.0377 114.523 47.0956 114.407 47.0956C114.096 46.9025 113.862 46.8059 113.707 46.8059C113.629 46.7673 113.551 46.6707 113.474 46.5162C113.396 46.4003 113.318 46.3038 113.24 46.2265C113.163 46.1492 113.143 46.0334 113.182 45.8788C113.221 45.6857 113.202 45.5312 113.124 45.4153C113.202 45.2222 113.318 45.087 113.474 45.0097C113.629 44.9324 113.804 44.9131 113.998 44.9518ZM126.011 46.3424C126.088 46.6514 126.127 47.0184 126.127 47.4433C126.127 47.8682 125.913 48.1 125.486 48.1386C125.291 48.3704 125.039 48.4283 124.728 48.3124C124.456 48.2352 124.203 48.1193 123.97 47.9648C123.814 47.5785 123.756 47.3274 123.795 47.2115C123.872 47.0956 123.892 46.9797 123.853 46.8639C124.009 46.8252 124.125 46.7673 124.203 46.69C124.281 46.6128 124.378 46.5162 124.494 46.4003C124.689 46.3231 124.922 46.2458 125.194 46.1686C125.466 46.1299 125.738 46.1879 126.011 46.3424Z" fill="#FA4A0C"/>
<path d="M154.583 0.567836C155.011 0.297438 155.341 0.123611 155.574 0.046354C155.846 -0.0309026 156.099 -0.0115885 156.332 0.104296C156.41 0.181553 156.566 0.336066 156.799 0.567836C157.071 0.799606 157.226 0.992747 157.265 1.14726C157.343 1.41766 157.304 1.64943 157.149 1.84257C157.032 1.99708 156.838 2.1516 156.566 2.30611C156.449 2.38337 156.332 2.44131 156.216 2.47994C156.099 2.51857 155.944 2.51857 155.749 2.47994C155.438 2.17091 155.224 1.95846 155.108 1.84257C154.991 1.72669 154.875 1.6108 154.758 1.49492C154.641 1.37903 154.564 1.26315 154.525 1.14726C154.486 0.992747 154.505 0.799606 154.583 0.567836ZM154.525 2.94348C154.68 3.44565 154.816 4.04438 154.933 4.73969C155.05 5.39637 154.972 5.99511 154.7 6.53591C154.7 6.72905 154.68 6.92219 154.641 7.11533C154.641 7.26985 154.622 7.4823 154.583 7.7527C154.272 8.13898 153.961 8.54458 153.65 8.96949C153.339 9.35578 153.222 9.85794 153.3 10.476C153.106 10.9009 153.048 11.3644 153.125 11.8666C153.242 12.3688 153.261 12.8323 153.184 13.2572C153.145 14.6092 153.222 15.7681 153.417 16.7338C153.65 17.6995 153.747 18.7618 153.708 19.9206C153.747 20.3069 153.786 20.6352 153.825 20.9056C153.864 21.1374 153.98 21.3306 154.175 21.4851C154.136 21.6782 154.136 21.8907 154.175 22.1224C154.214 22.3542 154.155 22.5667 154 22.7598C154.078 22.9143 154.117 23.1075 154.117 23.3392C154.155 23.5324 154.233 23.6869 154.35 23.8028C154.272 24.3049 154.175 24.7492 154.058 25.1354C153.942 25.5217 153.883 25.8887 153.883 26.2363C153.883 26.3522 153.903 26.4874 153.942 26.6419C153.98 26.7578 154 26.8737 154 26.9896C153.961 27.4145 153.961 27.6656 154 27.7429C154.039 27.7815 154.058 27.8394 154.058 27.9167C154.097 28.2643 154.097 28.4575 154.058 28.4961C154.019 28.4961 154 28.5154 154 28.554C154 28.7472 154.039 28.9403 154.117 29.1335C154.233 29.3266 154.35 29.5004 154.466 29.655C154.389 29.7708 154.369 29.8867 154.408 30.0026C154.447 30.1185 154.486 30.2344 154.525 30.3503C154.564 30.5434 154.564 30.7365 154.525 30.9297C154.486 31.0842 154.505 31.2387 154.583 31.3932C154.661 31.5864 154.739 31.7409 154.816 31.8568C154.894 31.9727 154.913 32.1272 154.875 32.3203C155.03 32.5134 155.088 32.7645 155.05 33.0736C155.011 33.3826 155.069 33.6144 155.224 33.7689C155.147 33.962 155.108 34.2324 155.108 34.5801C155.147 34.9277 155.127 35.2561 155.05 35.5651C155.011 35.681 154.972 35.7969 154.933 35.9127C154.933 35.99 154.933 36.1252 154.933 36.3183C154.933 36.5115 154.894 36.7239 154.816 36.9557C154.777 37.1488 154.758 37.3613 154.758 37.5931C154.758 37.7476 154.777 37.9021 154.816 38.0566C154.855 38.1725 154.875 38.327 154.875 38.5201C154.797 39.0996 154.816 39.6211 154.933 40.0846C155.05 40.5095 155.069 40.9344 154.991 41.3593C155.069 41.5911 155.127 41.8229 155.166 42.0546C155.205 42.2478 155.186 42.4796 155.108 42.75C155.224 43.059 155.302 43.3873 155.341 43.735C155.38 44.044 155.341 44.353 155.224 44.6621C154.875 45.1256 154.544 45.4346 154.233 45.5891C153.961 45.7436 153.689 45.8016 153.417 45.763C152.756 46.0334 152.212 46.2651 151.784 46.4583C151.395 46.69 150.948 46.7866 150.443 46.748C149.976 46.6321 149.665 46.5935 149.51 46.6321C149.354 46.6707 149.238 46.6514 149.16 46.5742C148.966 46.69 148.791 46.7287 148.635 46.69C148.48 46.6514 148.344 46.5935 148.227 46.5162C148.111 46.439 147.974 46.3424 147.819 46.2265C147.702 46.1106 147.547 46.0527 147.352 46.0527C147.275 45.9368 147.197 45.8595 147.119 45.8209C147.041 45.7436 146.964 45.6278 146.886 45.4732C146.458 45.1642 146.245 44.8938 146.245 44.6621C146.283 44.3917 146.206 44.2371 146.011 44.1985C145.895 43.2328 145.934 42.2092 146.128 41.1276C146.361 40.046 146.75 39.1575 147.294 38.4622C147.566 37.2647 147.761 36.2604 147.877 35.4492C148.033 34.5994 148.111 33.7496 148.111 32.8997C148.111 32.668 148.091 32.4362 148.052 32.2044C148.013 31.934 148.013 31.6829 148.052 31.4512C148.091 31.3353 148.13 31.2194 148.169 31.1035C148.208 30.9876 148.227 30.8717 148.227 30.7559C148.266 30.6013 148.266 30.4468 148.227 30.2923C148.188 30.1378 148.188 29.964 148.227 29.7708C148.305 29.5391 148.324 29.3846 148.285 29.3073C148.285 29.1914 148.285 29.0948 148.285 29.0176C148.324 28.7472 148.363 28.4768 148.402 28.2064C148.48 27.936 148.519 27.6656 148.519 27.3952C148.519 27.1248 148.538 26.9317 148.577 26.8158C148.655 26.6999 148.694 26.5647 148.694 26.4102C148.616 25.9466 148.577 25.6569 148.577 25.541C148.616 25.4252 148.635 25.3286 148.635 25.2513C148.596 24.9037 148.577 24.5174 148.577 24.0925C148.616 23.6676 148.694 23.2813 148.81 22.9336C148.888 22.5473 148.985 22.1611 149.102 21.7748C149.257 21.3885 149.316 20.9829 149.277 20.558C149.199 20.2876 149.199 20.0558 149.277 19.8627C149.238 19.7468 149.18 19.6116 149.102 19.4571C149.024 19.3026 149.024 19.1867 149.102 19.1094C149.102 18.7231 149.005 18.4527 148.81 18.2982C148.655 18.1437 148.538 17.9119 148.46 17.6029C148.305 17.4484 148.208 17.2166 148.169 16.9076C148.13 16.5986 148.091 16.3282 148.052 16.0964C148.052 15.9805 148.052 15.826 148.052 15.6329C148.052 15.4397 148.072 15.3045 148.111 15.2273C148.305 14.7251 148.383 14.3968 148.344 14.2423C148.344 14.0877 148.383 13.9525 148.46 13.8367C148.383 13.6435 148.344 13.4697 148.344 13.3152C148.383 13.1607 148.324 13.0062 148.169 12.8516C148.091 12.3881 148.033 12.0791 147.994 11.9246C147.955 11.7314 147.897 11.5383 147.819 11.3451C147.702 11.152 147.586 10.9782 147.469 10.8237C147.352 10.6305 147.314 10.3794 147.352 10.0704C147.391 9.83863 147.411 9.58755 147.411 9.31715C147.411 9.00812 147.45 8.75704 147.527 8.5639C147.45 8.06173 147.411 7.55956 147.411 7.05739C147.45 6.5166 147.43 5.9758 147.352 5.435C147.314 5.24186 147.275 5.08735 147.236 4.97146C147.197 4.85558 147.216 4.72038 147.294 4.56587C147.294 4.41135 147.275 4.29547 147.236 4.21821C147.236 4.10233 147.236 4.00576 147.236 3.9285C147.314 3.69673 147.411 3.50359 147.527 3.34907C147.644 3.19456 147.761 3.02073 147.877 2.82759C148.227 2.55719 148.383 2.44131 148.344 2.47994C148.305 2.47994 148.305 2.44131 148.344 2.36405C148.538 2.24817 148.694 2.19023 148.81 2.19023C148.966 2.1516 149.121 2.05503 149.277 1.90051C149.51 1.78463 149.724 1.78463 149.918 1.90051C150.151 1.97777 150.385 2.0164 150.618 2.0164C150.812 2.05503 150.968 2.03571 151.084 1.95846C151.24 1.8812 151.415 1.84257 151.609 1.84257C151.842 1.84257 152.076 1.93914 152.309 2.13228C152.581 2.2868 152.853 2.36405 153.125 2.36405C153.242 2.59582 153.417 2.75034 153.65 2.82759C153.922 2.86622 154.214 2.90485 154.525 2.94348ZM145.953 21.3112C145.953 21.1954 145.895 21.0988 145.778 21.0215C145.7 20.9443 145.7 20.8284 145.778 20.6739C145.7 20.0172 145.623 19.4764 145.545 19.0515C145.506 18.5879 145.642 18.2017 145.953 17.8926C146.458 17.9699 146.828 18.0085 147.061 18.0085C147.294 17.9699 147.43 18.1051 147.469 18.4141C147.78 18.839 147.858 19.3798 147.702 20.0365C147.547 20.6546 147.275 21.0795 146.886 21.3112C146.692 21.2726 146.536 21.2919 146.419 21.3692C146.303 21.4464 146.147 21.4271 145.953 21.3112ZM153.417 47.5592C153.611 47.8296 153.631 48.0807 153.475 48.3124C153.359 48.5442 153.3 48.7953 153.3 49.0657C153.028 49.1429 152.775 49.2781 152.542 49.4713C152.348 49.703 152.095 49.8189 151.784 49.8189C151.59 50.0121 151.376 50.0507 151.143 49.9348C150.909 49.8189 150.696 49.703 150.501 49.5872C150.579 48.6215 150.89 48.0227 151.434 47.7909C152.017 47.5592 152.678 47.4819 153.417 47.5592ZM144.087 43.677C144.398 43.6384 144.592 43.7157 144.67 43.9088C144.748 44.0633 144.884 44.1792 145.078 44.2565C145.117 44.5655 145.078 44.8359 144.962 45.0676C144.884 45.2994 144.787 45.5312 144.67 45.763C144.476 45.9175 144.301 45.9368 144.145 45.8209C143.99 45.705 143.815 45.6278 143.621 45.5891C143.31 45.1256 143.173 44.8166 143.212 44.6621C143.251 44.5075 143.29 44.353 143.329 44.1985C143.446 44.1213 143.562 44.044 143.679 43.9667C143.834 43.8509 143.97 43.7543 144.087 43.677Z" fill="#FA4A0C"/>
<path d="M164.671 7.81064C164.632 8.04241 164.671 8.21624 164.788 8.33213C164.904 8.44801 164.943 8.62184 164.904 8.85361C164.477 9.00812 164.243 9.08538 164.204 9.08538C164.204 9.08538 164.185 9.10469 164.146 9.14332C163.757 9.10469 163.505 9.08538 163.388 9.08538C163.271 9.08538 163.174 8.98881 163.096 8.79567C163.33 8.37075 163.563 8.06173 163.796 7.86859C164.068 7.67544 164.36 7.65613 164.671 7.81064ZM162.163 9.54892C162.358 9.62617 162.494 9.74206 162.572 9.89657C162.649 10.0511 162.727 10.2249 162.805 10.4181C162.844 10.9202 162.688 11.2679 162.338 11.461C162.027 11.6542 161.716 11.9052 161.405 12.2143C161.289 12.1756 161.172 12.1756 161.056 12.2143C160.978 12.2529 160.842 12.2529 160.647 12.2143C160.531 12.0984 160.414 11.9052 160.298 11.6348C160.336 11.1327 160.375 10.7657 160.414 10.5339C160.453 10.3022 160.511 10.0897 160.589 9.89657C161.017 9.70343 161.328 9.60686 161.522 9.60686C161.755 9.56823 161.969 9.54892 162.163 9.54892ZM170.152 35.681C170.424 35.5265 170.677 35.3719 170.91 35.2174C171.143 35.0629 171.416 34.8891 171.727 34.6959C171.804 34.5028 171.882 34.3676 171.96 34.2904C172.076 34.1745 172.193 34.0586 172.31 33.9427C172.465 33.4405 172.523 33.0542 172.485 32.7838C172.446 32.5134 172.465 32.2237 172.543 31.9147C173.009 31.6057 173.34 31.3932 173.534 31.2773C173.767 31.1615 174.001 31.1421 174.234 31.2194C174.389 31.1421 174.545 31.1035 174.7 31.1035C174.895 31.0649 175.031 31.0842 175.109 31.1615C175.614 30.9297 176.139 30.8331 176.683 30.8717C176.838 30.9104 176.955 30.9683 177.033 31.0456C177.149 31.1228 177.266 31.2001 177.383 31.2773C177.577 31.3546 177.771 31.4125 177.966 31.4512C178.199 31.4898 178.393 31.5671 178.549 31.6829C178.782 31.9147 178.918 32.0885 178.957 32.2044C179.268 32.6293 179.404 32.919 179.365 33.0736C179.365 33.1894 179.424 33.3053 179.54 33.4212C179.462 33.7302 179.443 33.962 179.482 34.1165C179.521 34.271 179.521 34.5028 179.482 34.8118C179.482 35.314 179.385 35.7003 179.19 35.9707C178.802 36.3183 178.568 36.5115 178.491 36.5501C178.413 36.5887 178.335 36.6467 178.257 36.7239C178.024 36.9943 177.83 37.1682 177.674 37.2454C177.519 37.284 177.383 37.3806 177.266 37.5351C177.149 37.6124 177.052 37.709 176.975 37.8248C176.936 37.9021 176.858 37.9794 176.741 38.0566C176.702 38.1725 176.644 38.2884 176.566 38.4043C176.489 38.4815 176.411 38.5781 176.333 38.694C176.333 38.9257 176.275 39.1189 176.158 39.2734C176.042 39.4279 175.886 39.5631 175.692 39.679C175.536 39.7949 175.361 39.9301 175.167 40.0846C175.011 40.2005 174.895 40.3743 174.817 40.6061C174.623 40.6061 174.448 40.7026 174.292 40.8958C174.176 41.0503 174.02 41.1276 173.826 41.1276C173.204 41.4752 172.757 41.7263 172.485 41.8808C172.212 41.9967 171.901 42.0933 171.552 42.1705C171.163 42.325 170.871 42.3637 170.677 42.2864C170.483 42.1705 170.269 42.1126 170.036 42.1126C169.841 42.074 169.647 42.0933 169.452 42.1705C169.258 42.2092 169.064 42.2285 168.869 42.2285C168.325 42.1898 167.975 42.1126 167.82 41.9967C167.664 41.8808 167.489 41.7842 167.295 41.707C167.062 41.707 166.906 41.6877 166.828 41.649C166.79 41.5718 166.731 41.5332 166.653 41.5332C166.031 41.4559 165.623 41.2821 165.429 41.0117C165.235 40.7413 164.982 40.5481 164.671 40.4323C164.282 39.8915 163.855 39.4086 163.388 38.9837C162.922 38.5201 162.572 37.96 162.338 37.3034C162.183 37.1488 162.066 36.975 161.989 36.7819C161.911 36.5887 161.833 36.3956 161.755 36.2024C161.639 36.0866 161.522 35.8934 161.405 35.623C161.328 35.3526 161.192 35.1015 160.997 34.8698C160.842 34.5994 160.725 34.329 160.647 34.0586C160.609 33.9427 160.589 33.8268 160.589 33.7109C160.628 33.5564 160.589 33.4405 160.472 33.3633C160.434 33.0929 160.395 32.7838 160.356 32.4362C160.317 32.0885 160.259 31.7988 160.181 31.5671C160.181 31.258 160.2 30.949 160.239 30.64C160.278 30.3309 160.278 30.0026 160.239 29.655C160.239 29.3073 160.2 28.9596 160.123 28.612C160.045 28.2643 160.006 27.936 160.006 27.627C160.006 27.5111 160.025 27.3952 160.064 27.2793C160.103 27.1634 160.123 27.0669 160.123 26.9896C160.123 26.6033 160.181 26.1784 160.298 25.7149C160.453 25.2127 160.628 24.7492 160.822 24.3242C160.822 24.1697 160.803 24.0152 160.764 23.8607C160.725 23.7062 160.745 23.571 160.822 23.4551C160.628 23.1461 160.609 22.7598 160.764 22.2963C160.686 21.9872 160.647 21.7168 160.647 21.4851C160.686 21.2533 160.725 20.9829 160.764 20.6739C160.686 20.558 160.647 20.3262 160.647 19.9786C160.686 19.3219 160.745 18.6459 160.822 17.9506C160.9 17.2166 161.036 16.5793 161.231 16.0385C161.231 15.8067 161.289 15.6136 161.405 15.459C161.561 15.2659 161.716 15.0341 161.872 14.7637C162.027 14.4547 162.144 14.2616 162.222 14.1843C162.3 14.1071 162.358 14.0298 162.397 13.9525C162.513 13.7208 162.611 13.5856 162.688 13.5469C162.766 13.4697 162.805 13.3731 162.805 13.2572C163.388 12.5619 164.029 12.0598 164.729 11.7507C165.157 11.4803 165.468 11.3258 165.662 11.2872C165.857 11.2486 166.051 11.1906 166.245 11.1134C166.401 11.0361 166.595 10.9589 166.828 10.8816C167.101 10.8043 167.334 10.8043 167.528 10.8816C167.761 10.7657 168.053 10.6691 168.403 10.5919C168.753 10.476 169.064 10.4181 169.336 10.4181C169.569 10.2249 169.822 10.1283 170.094 10.1283C170.405 10.1283 170.716 10.167 171.027 10.2442C171.377 10.3601 171.59 10.4181 171.668 10.4181C171.746 10.3794 171.824 10.3601 171.901 10.3601C172.174 10.3601 172.426 10.4181 172.66 10.5339C173.087 10.5339 173.534 10.5919 174.001 10.7078C174.467 10.8237 174.856 10.9782 175.167 11.1713C175.245 11.3644 175.381 11.519 175.575 11.6348C175.769 11.7121 175.906 11.8473 175.983 12.0404C176.178 12.1177 176.353 12.2336 176.508 12.3881C176.702 12.504 176.838 12.6778 176.916 12.9096C177.344 13.1027 177.655 13.4117 177.849 13.8367C178.044 14.2229 178.257 14.5706 178.491 14.8796C178.452 15.0728 178.471 15.2466 178.549 15.4011C178.627 15.517 178.666 15.6908 178.666 15.9226C178.782 16.0771 178.899 16.2123 179.015 16.3282C179.132 16.4441 179.249 16.5793 179.365 16.7338C179.365 17.0814 179.404 17.4098 179.482 17.7188C179.599 18.0278 179.657 18.3369 179.657 18.6459C179.812 19.1867 179.871 19.824 179.832 20.558C179.832 20.7898 179.793 21.0408 179.715 21.3112C179.637 21.543 179.599 21.7941 179.599 22.0645C179.56 22.3735 179.599 22.6825 179.715 22.9916C179.832 23.262 179.812 23.5517 179.657 23.8607C179.773 24.5174 179.754 25.0775 179.599 25.541C179.443 25.9659 179.326 26.4295 179.249 26.9317C179.171 27.0475 179.113 27.1827 179.074 27.3373C179.074 27.4918 178.996 27.6077 178.841 27.6849C178.763 27.8008 178.646 27.8974 178.491 27.9746C178.335 28.0519 178.16 28.1291 177.966 28.2064C177.383 28.5154 176.819 28.7086 176.275 28.7858C176.042 28.8631 175.789 28.9017 175.517 28.9017C175.245 28.8631 174.953 28.8244 174.642 28.7858C174.137 28.6699 173.748 28.6506 173.476 28.7279C173.243 28.8051 173.009 28.8631 172.776 28.9017C172.504 28.979 172.251 29.0369 172.018 29.0755C171.785 29.1142 171.513 29.0948 171.202 29.0176C170.813 29.2107 170.366 29.2494 169.861 29.1335C169.355 29.1335 168.966 29.1142 168.694 29.0755C168.461 28.9983 168.286 28.9017 168.17 28.7858C167.781 28.7086 167.353 28.6506 166.887 28.612C166.459 28.5734 166.09 28.554 165.779 28.554C165.468 28.7086 165.293 28.9983 165.254 29.4232C165.215 29.8481 165.157 30.273 165.079 30.6979C165.04 30.8911 165.001 31.1228 164.962 31.3932C164.962 31.625 165.001 31.8568 165.079 32.0885C165.273 32.4748 165.41 32.919 165.487 33.4212C165.565 33.8848 165.682 34.329 165.837 34.7539C166.031 34.9084 166.168 35.1402 166.245 35.4492C166.634 35.5651 167.023 35.623 167.412 35.623C167.723 35.4299 168.033 35.4106 168.344 35.5651C168.655 35.7196 168.966 35.7003 169.277 35.5071C169.355 35.623 169.491 35.6617 169.686 35.623C169.88 35.5844 170.036 35.6037 170.152 35.681ZM174.234 17.8347C173.962 17.2939 173.709 16.7724 173.476 16.2702C173.282 15.7681 172.873 15.459 172.251 15.3432C171.94 15.1114 171.746 14.9955 171.668 14.9955C171.357 14.9183 171.046 14.841 170.735 14.7637C170.463 14.6865 170.172 14.6092 169.861 14.532C169.394 14.4547 169.103 14.4933 168.986 14.6479C168.869 14.7637 168.694 14.8217 168.461 14.8217C168.383 14.8989 168.306 14.9955 168.228 15.1114C168.15 15.2273 168.014 15.2852 167.82 15.2852C167.509 15.6715 167.314 15.9805 167.237 16.2123C167.198 16.4441 167.139 16.6758 167.062 16.9076C167.178 17.0235 167.217 17.178 167.178 17.3711C167.139 17.5257 167.12 17.6995 167.12 17.8926C167.159 18.1244 167.217 18.3562 167.295 18.5879C167.412 18.8197 167.431 19.0515 167.353 19.2833C167.47 19.4378 167.509 19.6309 167.47 19.8627C167.431 20.0944 167.45 20.3069 167.528 20.5C167.334 20.925 167.237 21.176 167.237 21.2533C167.275 21.2919 167.256 21.3112 167.178 21.3112C167.256 21.6589 167.178 21.9679 166.945 22.2383C166.751 22.4701 166.615 22.7791 166.537 23.1654C166.537 23.3972 166.517 23.6096 166.479 23.8028C166.44 23.9573 166.401 24.1504 166.362 24.3822C166.634 24.4981 166.906 24.614 167.178 24.7298C167.489 24.8071 167.742 24.9423 167.936 25.1354C168.131 25.1354 168.286 25.1548 168.403 25.1934C168.558 25.1934 168.694 25.1354 168.811 25.0196C169.2 24.9809 169.608 24.9809 170.036 25.0196C170.463 25.0582 170.891 25.1161 171.318 25.1934C171.746 25.232 172.154 25.2706 172.543 25.3093C172.971 25.3093 173.379 25.2706 173.767 25.1934C174.117 25.1934 174.331 25.1161 174.409 24.9616C174.487 24.7685 174.564 24.5946 174.642 24.4401C174.836 24.247 174.953 24.0345 174.992 23.8028C175.031 23.1847 175.031 22.8177 174.992 22.7019C174.992 22.1224 174.992 21.7168 174.992 21.4851C175.031 21.2147 175.031 20.9829 174.992 20.7898C174.953 19.824 174.739 18.9356 174.351 18.1244L174.234 17.8347ZM172.31 24.3242C172.154 24.247 172.038 24.1504 171.96 24.0345C171.921 23.88 171.863 23.7641 171.785 23.6869C171.746 23.4165 171.882 23.2427 172.193 23.1654C172.271 23.0109 172.368 22.8757 172.485 22.7598C172.601 22.6439 172.698 22.4894 172.776 22.2963C173.009 22.2576 173.204 22.3156 173.359 22.4701C173.515 22.586 173.69 22.6632 173.884 22.7019C174.195 23.0495 174.234 23.3972 174.001 23.7448C173.767 24.0538 173.476 24.247 173.126 24.3242C172.815 24.1697 172.543 24.1697 172.31 24.3242ZM180.357 37.9407C180.473 38.018 180.512 38.1146 180.473 38.2304C180.434 38.3463 180.395 38.4815 180.357 38.636C180.318 38.8678 180.318 39.0416 180.357 39.1575C180.395 39.2348 180.376 39.3507 180.298 39.5052C180.259 39.5824 180.182 39.679 180.065 39.7949C179.948 39.9108 179.871 40.0073 179.832 40.0846C179.521 40.4709 179.288 40.664 179.132 40.664C179.015 40.6254 178.918 40.6061 178.841 40.6061C178.53 40.7606 178.18 40.8185 177.791 40.7799C177.402 40.7026 177.227 40.5288 177.266 40.2584C177.266 40.1039 177.344 39.9687 177.499 39.8528C177.655 39.7369 177.771 39.6211 177.849 39.5052C177.966 39.3507 178.024 39.2155 178.024 39.0996C178.063 38.9451 178.121 38.8099 178.199 38.694C178.666 38.2691 179.054 38.0566 179.365 38.0566C179.676 38.018 180.007 37.9794 180.357 37.9407ZM160.472 39.9687C160.589 39.8915 160.667 39.7949 160.706 39.679C160.745 39.5631 160.803 39.4665 160.881 39.3893C161.231 39.312 161.425 39.2734 161.464 39.2734C161.542 39.2734 161.619 39.2348 161.697 39.1575C161.891 39.2348 162.047 39.3313 162.163 39.4472C162.319 39.5245 162.513 39.5824 162.747 39.6211C163.096 39.8528 163.174 40.1425 162.98 40.4902C162.785 40.8378 162.63 41.1469 162.513 41.4173C161.775 41.5332 161.075 41.4366 160.414 41.1276C160.336 40.8958 160.336 40.7026 160.414 40.5481C160.492 40.355 160.511 40.1619 160.472 39.9687Z" fill="#FA4A0C"/>
</svg>
